<svg width="1203" height="117" viewBox="0 0 1203 117" fill="none" xmlns="http://www.w3.org/2000/svg">
<g filter="url(#filter0_f)">
<path d="M47.744 109L45.8898 109.75C46.1953 110.505 46.9289 111 47.744 111V109ZM6.992 8.19999V6.19999C6.32705 6.19999 5.70558 6.53048 5.3338 7.08179C4.96202 7.63311 4.88857 8.33314 5.1378 8.94962L6.992 8.19999ZM33.776 8.19999L35.6444 7.48636C35.3485 6.71171 34.6052 6.19999 33.776 6.19999V8.19999ZM62.432 83.224L60.5637 83.9376C60.8587 84.71 61.5985 85.2212 62.4253 85.224C63.2521 85.2268 63.9954 84.7205 64.2955 83.9501L62.432 83.224ZM91.664 8.19999V6.19999C90.8397 6.19999 90.0997 6.70578 89.8005 7.47389L91.664 8.19999ZM117.44 8.19999L119.291 8.9587C119.543 8.34184 119.472 7.63952 119.101 7.08586C118.73 6.5322 118.107 6.19999 117.44 6.19999V8.19999ZM76.112 109V111C76.9236 111 77.6546 110.51 77.9625 109.759L76.112 109ZM49.5982 108.25L8.8462 7.45037L5.1378 8.94962L45.8898 109.75L49.5982 108.25ZM6.992 10.2H33.776V6.19999H6.992V10.2ZM31.9076 8.91362L60.5637 83.9376L64.3004 82.5104L35.6444 7.48636L31.9076 8.91362ZM64.2955 83.9501L93.5275 8.92609L89.8005 7.47389L60.5685 82.4979L64.2955 83.9501ZM91.664 10.2H117.44V6.19999H91.664V10.2ZM115.59 7.44129L74.2615 108.241L77.9625 109.759L119.291 8.9587L115.59 7.44129ZM76.112 107H47.744V111H76.112V107ZM124.774 109H122.774C122.774 110.105 123.669 111 124.774 111V109ZM124.774 8.19999V6.19999C123.669 6.19999 122.774 7.09542 122.774 8.19999H124.774ZM204.262 8.19999H206.262C206.262 7.09542 205.366 6.19999 204.262 6.19999V8.19999ZM204.262 29.656V31.656C205.366 31.656 206.262 30.7606 206.262 29.656H204.262ZM149.542 29.656V27.656C148.437 27.656 147.542 28.5514 147.542 29.656H149.542ZM149.542 47.8H147.542C147.542 48.9046 148.437 49.8 149.542 49.8V47.8ZM185.686 47.8H187.686C187.686 46.6954 186.79 45.8 185.686 45.8V47.8ZM185.686 68.536V70.536C186.79 70.536 187.686 69.6406 187.686 68.536H185.686ZM149.542 68.536V66.536C148.437 66.536 147.542 67.4314 147.542 68.536H149.542ZM149.542 87.544H147.542C147.542 88.6486 148.437 89.544 149.542 89.544V87.544ZM204.838 87.544H206.838C206.838 86.4394 205.942 85.544 204.838 85.544V87.544ZM204.838 109V111C205.942 111 206.838 110.105 206.838 109H204.838ZM126.774 109V8.19999H122.774V109H126.774ZM124.774 10.2H204.262V6.19999H124.774V10.2ZM202.262 8.19999V29.656H206.262V8.19999H202.262ZM204.262 27.656H149.542V31.656H204.262V27.656ZM147.542 29.656V47.8H151.542V29.656H147.542ZM149.542 49.8H185.686V45.8H149.542V49.8ZM183.686 47.8V68.536H187.686V47.8H183.686ZM185.686 66.536H149.542V70.536H185.686V66.536ZM147.542 68.536V87.544H151.542V68.536H147.542ZM149.542 89.544H204.838V85.544H149.542V89.544ZM202.838 87.544V109H206.838V87.544H202.838ZM204.838 107H124.774V111H204.838V107ZM278.593 84.376L277.698 82.5871C277.693 82.5899 277.687 82.5927 277.682 82.5955L278.593 84.376ZM289.969 75.016L291.37 73.5892C290.969 73.1948 290.42 72.9878 289.858 73.0191C289.296 73.0503 288.773 73.3169 288.418 73.7535L289.969 75.016ZM306.241 91L307.8 92.2525C308.444 91.4515 308.375 90.2932 307.642 89.5732L306.241 91ZM287.665 105.112L286.825 103.297L286.817 103.301L287.665 105.112ZM242.737 106.408L241.985 108.261L241.994 108.265L242.737 106.408ZM225.601 95.464L224.216 96.9068L225.601 95.464ZM214.225 79.048L212.394 79.8525L214.225 79.048ZM214.225 38.152L216.056 38.9566L216.06 38.9464L214.225 38.152ZM225.601 21.592L224.23 20.1356C224.225 20.1401 224.221 20.1447 224.216 20.1492L225.601 21.592ZM288.385 12.088L287.547 13.9039C287.56 13.9099 287.573 13.9157 287.586 13.9214L288.385 12.088ZM298.753 18.28L297.515 19.851C297.525 19.8588 297.535 19.8665 297.545 19.8742L298.753 18.28ZM306.961 26.344L308.363 27.7705C309.086 27.06 309.163 25.9211 308.542 25.1197L306.961 26.344ZM290.257 42.76L288.698 44.0135C289.053 44.4537 289.576 44.7236 290.14 44.7566C290.704 44.7895 291.256 44.5824 291.659 44.1865L290.257 42.76ZM278.305 32.824L277.364 34.5887C277.379 34.597 277.395 34.605 277.41 34.6128L278.305 32.824ZM252.817 31.672L253.586 33.5182C253.594 33.5147 253.603 33.5112 253.611 33.5077L252.817 31.672ZM243.745 37.72L242.331 36.3058C242.322 36.3147 242.313 36.3237 242.304 36.3327L243.745 37.72ZM237.697 47.08L235.854 46.3039C235.85 46.3121 235.847 46.3203 235.843 46.3286L237.697 47.08ZM237.697 70.12L235.843 70.8714C235.852 70.8918 235.86 70.9121 235.869 70.9323L237.697 70.12ZM243.889 79.192L242.475 80.6062C242.483 80.6148 242.492 80.6233 242.501 80.6317L243.889 79.192ZM253.249 85.384L252.455 87.2197C252.475 87.2282 252.495 87.2364 252.515 87.2443L253.249 85.384ZM265.057 89.544C270.251 89.544 275.078 88.4208 279.504 86.1565L277.682 82.5955C273.852 84.5552 269.654 85.544 265.057 85.544V89.544ZM279.487 86.1649C283.995 83.9108 288.004 80.5986 291.52 76.2785L288.418 73.7535C285.214 77.6894 281.638 80.6172 277.698 82.5871L279.487 86.1649ZM288.567 76.4428L304.839 92.4268L307.642 89.5732L291.37 73.5892L288.567 76.4428ZM304.682 89.7475C300.194 95.334 294.261 99.8578 286.825 103.297L288.504 106.927C296.429 103.262 302.88 98.378 307.8 92.2525L304.682 89.7475ZM286.817 103.301C279.488 106.733 271.952 108.44 264.193 108.44V112.44C272.561 112.44 280.674 110.595 288.513 106.923L286.817 103.301ZM264.193 108.44C256.851 108.44 249.952 107.14 243.48 104.551L241.994 108.265C248.962 111.052 256.367 112.44 264.193 112.44V108.44ZM243.489 104.555C237.082 101.955 231.59 98.4408 226.986 94.0212L224.216 96.9068C229.212 101.703 235.143 105.485 241.985 108.261L243.489 104.555ZM226.986 94.0212C222.383 89.602 218.739 84.3493 216.056 78.2435L212.394 79.8525C215.279 86.4186 219.219 92.11 224.216 96.9068L226.986 94.0212ZM216.056 78.2435C213.389 72.1747 212.049 65.6343 212.049 58.6H208.049C208.049 66.1577 209.492 73.2493 212.394 79.8525L216.056 78.2435ZM212.049 58.6C212.049 51.5657 213.389 45.0253 216.056 38.9565L212.394 37.3475C209.492 43.9507 208.049 51.0423 208.049 58.6H212.049ZM216.06 38.9464C218.744 32.7451 222.388 27.449 226.986 23.0348L224.216 20.1492C219.214 24.951 215.273 30.6949 212.389 37.3576L216.06 38.9464ZM226.972 23.0484C231.677 18.6202 237.223 15.1022 243.633 12.5012L242.129 8.79477C235.29 11.5698 229.317 15.3477 224.23 20.1356L226.972 23.0484ZM243.633 12.5012C250.004 9.91596 256.851 8.616 264.193 8.616V4.616C256.367 4.616 249.006 6.00403 242.129 8.79477L243.633 12.5012ZM264.193 8.616C268.164 8.616 272.14 9.07763 276.124 10.004L277.03 6.10798C272.757 5.11436 268.477 4.616 264.193 4.616V8.616ZM276.124 10.004C280.123 10.934 283.93 12.2345 287.547 13.9039L289.223 10.2721C285.352 8.48549 281.287 7.09794 277.03 6.10798L276.124 10.004ZM287.586 13.9214C291.175 15.4859 294.483 17.4622 297.515 19.851L299.991 16.709C296.687 14.1058 293.083 11.9541 289.184 10.2546L287.586 13.9214ZM297.545 19.8742C300.581 22.1738 303.189 24.7391 305.379 27.5683L308.542 25.1197C306.125 21.9969 303.261 19.1862 299.961 16.6858L297.545 19.8742ZM305.559 24.9175L288.855 41.3335L291.659 44.1865L308.363 27.7705L305.559 24.9175ZM291.815 41.5065C288.11 36.8994 283.908 33.3895 279.199 31.0351L277.41 34.6128C281.534 36.6745 285.3 39.7886 288.698 44.0135L291.815 41.5065ZM279.246 31.0593C274.625 28.5946 269.596 27.368 264.193 27.368V31.368C268.966 31.368 273.345 32.4453 277.364 34.5887L279.246 31.0593ZM264.193 27.368C259.9 27.368 255.836 28.1874 252.023 29.8363L253.611 33.5077C256.902 32.0846 260.422 31.368 264.193 31.368V27.368ZM252.048 29.8258C248.356 31.3641 245.111 33.5251 242.331 36.3058L245.159 39.1342C247.562 36.7309 250.366 34.8599 253.586 33.5182L252.048 29.8258ZM242.304 36.3327C239.621 39.1188 237.476 42.4518 235.854 46.3039L239.54 47.8561C240.99 44.4122 242.876 41.5052 245.186 39.1073L242.304 36.3327ZM235.843 46.3286C234.299 50.1372 233.537 54.2344 233.537 58.6H237.537C237.537 54.7096 238.214 51.1268 239.55 47.8314L235.843 46.3286ZM233.537 58.6C233.537 62.9656 234.299 67.0628 235.843 70.8714L239.55 69.3686C238.214 66.0732 237.537 62.4904 237.537 58.6H233.537ZM235.869 70.9323C237.502 74.6053 239.704 77.8351 242.475 80.6062L245.303 77.7778C242.89 75.3649 240.964 72.5466 239.525 69.3077L235.869 70.9323ZM242.501 80.6317C245.368 83.3963 248.691 85.592 252.455 87.2197L254.043 83.5483C250.703 82.104 247.786 80.1717 245.277 77.7523L242.501 80.6317ZM252.515 87.2443C256.414 88.7835 260.601 89.544 265.057 89.544V85.544C261.065 85.544 257.38 84.8645 253.983 83.5237L252.515 87.2443ZM312.373 30.088H310.373C310.373 31.1926 311.269 32.088 312.373 32.088V30.088ZM312.373 8.19999V6.19999C311.269 6.19999 310.373 7.09542 310.373 8.19999H312.373ZM403.093 8.19999H405.093C405.093 7.09542 404.198 6.19999 403.093 6.19999V8.19999ZM403.093 30.088V32.088C404.198 32.088 405.093 31.1926 405.093 30.088H403.093ZM370.117 30.088V28.088C369.013 28.088 368.117 28.9834 368.117 30.088H370.117ZM370.117 109V111C371.222 111 372.117 110.105 372.117 109H370.117ZM345.349 109H343.349C343.349 110.105 344.245 111 345.349 111V109ZM345.349 30.088H347.349C347.349 28.9834 346.454 28.088 345.349 28.088V30.088ZM314.373 30.088V8.19999H310.373V30.088H314.373ZM312.373 10.2H403.093V6.19999H312.373V10.2ZM401.093 8.19999V30.088H405.093V8.19999H401.093ZM403.093 28.088H370.117V32.088H403.093V28.088ZM368.117 30.088V109H372.117V30.088H368.117ZM370.117 107H345.349V111H370.117V107ZM347.349 109V30.088H343.349V109H347.349ZM345.349 28.088H312.373V32.088H345.349V28.088ZM508.21 79.048L510.041 79.8526L510.045 79.8424L508.21 79.048ZM496.834 95.608L498.219 97.0508C498.224 97.046 498.229 97.0412 498.234 97.0364L496.834 95.608ZM479.698 106.552L478.946 104.699L479.698 106.552ZM437.362 106.552L438.114 104.699L437.362 106.552ZM420.226 95.608L418.826 97.0364C418.831 97.0412 418.836 97.046 418.841 97.0508L420.226 95.608ZM408.85 79.048L407.014 79.8425L407.019 79.8525L408.85 79.048ZM408.85 38.296L410.681 39.1006L410.685 39.0904L408.85 38.296ZM420.226 21.736L421.611 23.1788C421.616 23.174 421.621 23.1692 421.626 23.1644L420.226 21.736ZM496.834 21.736L495.434 23.1644C495.439 23.1692 495.444 23.174 495.449 23.1788L496.834 21.736ZM508.21 38.296L506.374 39.0905L506.379 39.1005L508.21 38.296ZM484.738 47.08L482.878 47.8143C482.88 47.82 482.882 47.8257 482.884 47.8314L484.738 47.08ZM478.69 37.72L477.249 39.1073C477.258 39.1163 477.267 39.1253 477.276 39.1342L478.69 37.72ZM469.762 31.672L468.95 33.4996C468.964 33.506 468.978 33.5121 468.993 33.5182L469.762 31.672ZM447.298 31.672L448.067 33.5182C448.082 33.5121 448.096 33.506 448.11 33.4996L447.298 31.672ZM438.226 37.72L436.812 36.3058C436.803 36.3147 436.794 36.3237 436.785 36.3327L438.226 37.72ZM432.322 47.08L434.175 47.8314C434.178 47.8257 434.18 47.82 434.182 47.8143L432.322 47.08ZM432.322 70.264L430.462 70.9983C430.464 71.004 430.466 71.0097 430.468 71.0154L432.322 70.264ZM438.226 79.48L436.785 80.8673C436.794 80.8763 436.803 80.8853 436.812 80.8942L438.226 79.48ZM447.298 85.672L446.486 87.4996C446.5 87.506 446.514 87.5121 446.529 87.5182L447.298 85.672ZM469.762 85.672L470.531 87.5182C470.546 87.5121 470.56 87.506 470.574 87.4996L469.762 85.672ZM478.69 79.48L477.276 78.0658C477.267 78.0747 477.258 78.0837 477.249 78.0927L478.69 79.48ZM484.738 70.264L486.591 71.0154C486.594 71.0097 486.596 71.004 486.598 70.9983L484.738 70.264ZM510.386 58.6C510.386 65.5344 509.047 72.0793 506.374 78.2536L510.045 79.8424C512.941 73.1527 514.386 66.0656 514.386 58.6H510.386ZM506.379 78.2435C503.694 84.353 500.046 89.6595 495.434 94.1796L498.234 97.0364C503.221 92.1485 507.157 86.415 510.041 79.8525L506.379 78.2435ZM495.449 94.1652C490.845 98.5848 485.352 102.099 478.946 104.699L480.45 108.405C487.291 105.629 493.223 101.847 498.219 97.0508L495.449 94.1652ZM478.946 104.699C472.572 107.285 465.773 108.584 458.53 108.584V112.584C466.263 112.584 473.576 111.195 480.45 108.405L478.946 104.699ZM458.53 108.584C451.287 108.584 444.488 107.285 438.114 104.699L436.61 108.405C443.484 111.195 450.797 112.584 458.53 112.584V108.584ZM438.114 104.699C431.707 102.099 426.215 98.5848 421.611 94.1652L418.841 97.0508C423.837 101.847 429.768 105.629 436.61 108.405L438.114 104.699ZM421.626 94.1796C417.013 89.6595 413.365 84.353 410.681 78.2435L407.019 79.8525C409.902 86.415 413.838 92.1485 418.826 97.0364L421.626 94.1796ZM410.685 78.2536C408.013 72.0793 406.674 65.5344 406.674 58.6H402.674C402.674 66.0656 404.119 73.1527 407.014 79.8424L410.685 78.2536ZM406.674 58.6C406.674 51.6656 408.013 45.1727 410.681 39.1005L407.019 37.4914C404.119 44.0913 402.674 51.1344 402.674 58.6H406.674ZM410.685 39.0904C413.369 32.8891 417.013 27.593 421.611 23.1788L418.841 20.2932C413.839 25.095 409.898 30.8389 407.014 37.5015L410.685 39.0904ZM421.626 23.1644C426.228 18.6543 431.716 15.0975 438.114 12.5012L436.61 8.79477C429.76 11.5745 423.824 15.4097 418.826 20.3076L421.626 23.1644ZM438.114 12.5012C444.488 9.91473 451.287 8.616 458.53 8.616V4.616C450.797 4.616 443.484 6.00526 436.61 8.79477L438.114 12.5012ZM458.53 8.616C465.773 8.616 472.572 9.91473 478.946 12.5012L480.45 8.79477C473.576 6.00526 466.263 4.616 458.53 4.616V8.616ZM478.946 12.5012C485.344 15.0975 490.832 18.6543 495.434 23.1644L498.234 20.3076C493.236 15.4097 487.3 11.5745 480.45 8.79477L478.946 12.5012ZM495.449 23.1788C500.047 27.593 503.69 32.8891 506.374 39.0904L510.045 37.5015C507.161 30.8389 503.221 25.095 498.219 20.2932L495.449 23.1788ZM506.379 39.1005C509.047 45.1727 510.386 51.6656 510.386 58.6H514.386C514.386 51.1344 512.941 44.0913 510.041 37.4914L506.379 39.1005ZM488.898 58.6C488.898 54.2344 488.135 50.1372 486.591 46.3286L482.884 47.8314C484.22 51.1268 484.898 54.7096 484.898 58.6H488.898ZM486.598 46.3457C485.065 42.4609 482.903 39.1048 480.104 36.3058L477.276 39.1342C479.661 41.5192 481.531 44.403 482.878 47.8143L486.598 46.3457ZM480.131 36.3327C477.437 33.5354 474.23 31.3669 470.531 29.8258L468.993 33.5182C472.206 34.8571 474.951 36.7206 477.249 39.1073L480.131 36.3327ZM470.574 29.8444C466.846 28.1873 462.823 27.368 458.53 27.368V31.368C462.301 31.368 465.766 32.0847 468.95 33.4996L470.574 29.8444ZM458.53 27.368C454.237 27.368 450.214 28.1873 446.486 29.8444L448.11 33.4996C451.294 32.0847 454.759 31.368 458.53 31.368V27.368ZM446.529 29.8258C442.837 31.3641 439.592 33.5251 436.812 36.3058L439.64 39.1342C442.043 36.7309 444.847 34.8599 448.067 33.5182L446.529 29.8258ZM436.785 36.3327C434.092 39.1292 431.989 42.4767 430.462 46.3457L434.182 47.8143C435.535 44.3873 437.367 41.4948 439.667 39.1073L436.785 36.3327ZM430.468 46.3286C428.924 50.1372 428.162 54.2344 428.162 58.6H432.162C432.162 54.7096 432.839 51.1268 434.175 47.8314L430.468 46.3286ZM428.162 58.6C428.162 62.966 428.924 67.1044 430.462 70.9983L434.182 69.5297C432.839 66.1276 432.162 62.49 432.162 58.6H428.162ZM430.468 71.0154C431.998 74.7882 434.101 78.0799 436.785 80.8673L439.667 78.0927C437.359 75.6961 435.526 72.8438 434.175 69.5126L430.468 71.0154ZM436.812 80.8942C439.583 83.6653 442.813 85.8671 446.486 87.4996L448.11 83.8444C444.871 82.4049 442.053 80.4787 439.64 78.0658L436.812 80.8942ZM446.529 87.5182C450.247 89.0673 454.254 89.832 458.53 89.832V85.832C454.741 85.832 451.261 85.1567 448.067 83.8258L446.529 87.5182ZM458.53 89.832C462.805 89.832 466.813 89.0673 470.531 87.5182L468.993 83.8258C465.799 85.1567 462.318 85.832 458.53 85.832V89.832ZM470.574 87.4996C474.254 85.8642 477.446 83.6546 480.131 80.8673L477.249 78.0927C474.941 80.4894 472.182 82.4078 468.95 83.8444L470.574 87.4996ZM480.104 80.8942C482.894 78.1043 485.055 74.804 486.591 71.0154L482.884 69.5126C481.54 72.828 479.67 75.6717 477.276 78.0658L480.104 80.8942ZM486.598 70.9983C488.135 67.1044 488.898 62.966 488.898 58.6H484.898C484.898 62.49 484.22 66.1276 482.878 69.5297L486.598 70.9983ZM525.555 109H523.555C523.555 110.105 524.451 111 525.555 111V109ZM525.555 8.19999V6.19999C524.451 6.19999 523.555 7.09542 523.555 8.19999H525.555ZM591.363 10.648L590.656 12.5189C590.673 12.5252 590.689 12.5312 590.706 12.537L591.363 10.648ZM602.595 17.272L601.227 18.7311C601.243 18.7457 601.259 18.7602 601.275 18.7743L602.595 17.272ZM609.939 27.352L608.108 28.156C608.113 28.1683 608.119 28.1807 608.125 28.1929L609.939 27.352ZM607.491 57.304L605.847 56.1656L607.491 57.304ZM593.811 68.68L592.979 66.8614C592.474 67.0924 592.088 67.5227 591.913 68.0494C591.738 68.5762 591.79 69.1519 592.056 69.639L593.811 68.68ZM615.843 109V111C616.549 111 617.203 110.628 617.563 110.02C617.924 109.413 617.937 108.661 617.598 108.041L615.843 109ZM588.195 109L586.419 109.919C586.763 110.583 587.448 111 588.195 111V109ZM569.187 72.28L570.963 71.3606C570.62 70.6968 569.935 70.28 569.187 70.28V72.28ZM550.323 72.28V70.28C549.219 70.28 548.323 71.1754 548.323 72.28H550.323ZM550.323 109V111C551.428 111 552.323 110.105 552.323 109H550.323ZM550.323 29.368V27.368C549.219 27.368 548.323 28.2634 548.323 29.368H550.323ZM550.323 52.12H548.323C548.323 53.2246 549.219 54.12 550.323 54.12V52.12ZM584.019 48.952L582.698 47.4506C582.688 47.4595 582.678 47.4685 582.668 47.4777L584.019 48.952ZM584.019 32.536L582.668 34.0103C582.678 34.0194 582.688 34.0285 582.698 34.0374L584.019 32.536ZM527.555 109V8.19999H523.555V109H527.555ZM525.555 10.2H577.107V6.19999H525.555V10.2ZM577.107 10.2C582.079 10.2 586.588 10.9821 590.656 12.5189L592.07 8.77705C587.498 7.04991 582.503 6.19999 577.107 6.19999V10.2ZM590.706 12.537C594.887 13.9912 598.381 16.0627 601.227 18.7311L603.963 15.8129C600.665 12.7213 596.671 10.3768 592.02 8.759L590.706 12.537ZM601.275 18.7743C604.219 21.3618 606.495 24.482 608.108 28.156L611.77 26.548C609.927 22.35 607.307 18.7502 603.915 15.7697L601.275 18.7743ZM608.125 28.1929C609.816 31.8437 610.675 35.8736 610.675 40.312H614.675C614.675 35.3424 613.71 30.7322 611.754 26.5111L608.125 28.1929ZM610.675 40.312C610.675 46.26 609.061 51.5232 605.847 56.1656L609.135 58.4424C612.834 53.1008 614.675 47.036 614.675 40.312H610.675ZM605.847 56.1656C602.601 60.854 598.325 64.4149 592.979 66.8614L594.643 70.4986C600.625 67.7611 605.469 63.738 609.135 58.4424L605.847 56.1656ZM592.056 69.639L614.088 109.959L617.598 108.041L595.566 67.721L592.056 69.639ZM615.843 107H588.195V111H615.843V107ZM589.971 108.081L570.963 71.3606L567.411 73.1994L586.419 109.919L589.971 108.081ZM569.187 70.28H550.323V74.28H569.187V70.28ZM548.323 72.28V109H552.323V72.28H548.323ZM550.323 107H525.555V111H550.323V107ZM574.803 27.368H550.323V31.368H574.803V27.368ZM548.323 29.368V52.12H552.323V29.368H548.323ZM550.323 54.12H574.803V50.12H550.323V54.12ZM574.803 54.12C579.024 54.12 582.618 52.9496 585.371 50.4263L582.668 47.4777C580.812 49.1784 578.263 50.12 574.803 50.12V54.12ZM585.34 50.4534C588.196 47.9403 589.619 44.6454 589.619 40.744H585.619C585.619 43.5625 584.642 45.7397 582.698 47.4506L585.34 50.4534ZM589.619 40.744C589.619 36.8425 588.196 33.5477 585.34 31.0346L582.698 34.0374C584.642 35.7483 585.619 37.9255 585.619 40.744H589.619ZM585.371 31.0617C582.618 28.5384 579.024 27.368 574.803 27.368V31.368C578.263 31.368 580.812 32.3096 582.668 34.0103L585.371 31.0617ZM653.524 109H651.524C651.524 110.105 652.419 111 653.524 111V109ZM653.524 8.19999V6.19999C652.419 6.19999 651.524 7.09542 651.524 8.19999H653.524ZM715.3 12.232L714.538 14.0813C714.546 14.0846 714.554 14.0877 714.562 14.0908L715.3 12.232ZM732.148 22.888L730.763 24.3314C730.768 24.336 730.773 24.3406 730.778 24.3452L732.148 22.888ZM743.524 39.016L741.697 39.8309L741.702 39.8415L743.524 39.016ZM732.148 94.456L730.778 92.9987C730.773 93.0034 730.768 93.008 730.763 93.0126L732.148 94.456ZM715.3 105.112L714.562 103.253L715.3 105.112ZM678.292 30.088V28.088C677.187 28.088 676.292 28.9834 676.292 30.088H678.292ZM678.292 87.112H676.292C676.292 88.2166 677.187 89.112 678.292 89.112V87.112ZM713.86 79.048L715.274 80.4622L713.86 79.048ZM719.908 69.976L721.754 70.7452V70.7452L719.908 69.976ZM719.908 47.656L718.054 48.4074C718.057 48.4134 718.059 48.4193 718.062 48.4252L719.908 47.656ZM713.86 38.44L712.419 39.8273C712.428 39.8363 712.437 39.8453 712.446 39.8542L713.86 38.44ZM704.932 32.392L704.12 34.2196C704.134 34.226 704.148 34.2321 704.163 34.2382L704.932 32.392ZM655.524 109V8.19999H651.524V109H655.524ZM653.524 10.2H694.42V6.19999H653.524V10.2ZM694.42 10.2C701.563 10.2 708.263 11.4975 714.538 14.0813L716.061 10.3826C709.281 7.59052 702.061 6.19999 694.42 6.19999V10.2ZM714.562 14.0908C720.868 16.5949 726.26 20.0118 730.763 24.3314L733.532 21.4446C728.628 16.7402 722.787 13.0531 716.038 10.3732L714.562 14.0908ZM730.778 24.3452C735.378 28.6688 739.017 33.824 741.697 39.8309L745.35 38.2011C742.462 31.728 738.518 26.1312 733.518 21.4307L730.778 24.3452ZM741.702 39.8415C744.362 45.7124 745.7 52.0532 745.7 58.888H749.7C749.7 51.5147 748.253 44.6076 745.346 38.1905L741.702 39.8415ZM745.7 58.888C745.7 65.5225 744.366 71.7684 741.702 77.6465L745.346 79.2975C748.25 72.8876 749.7 66.0775 749.7 58.888H745.7ZM741.702 77.6465C739.023 83.5583 735.383 88.6701 730.778 92.9987L733.518 95.9133C738.513 91.2179 742.456 85.6737 745.346 79.2975L741.702 77.6465ZM730.763 93.0126C726.26 97.3322 720.868 100.749 714.562 103.253L716.038 106.971C722.787 104.291 728.628 100.604 733.532 95.8994L730.763 93.0126ZM714.562 103.253C708.281 105.747 701.573 107 694.42 107V111C702.051 111 709.263 109.661 716.038 106.971L714.562 103.253ZM694.42 107H653.524V111H694.42V107ZM693.844 28.088H678.292V32.088H693.844V28.088ZM676.292 30.088V87.112H680.292V30.088H676.292ZM678.292 89.112H693.844V85.112H678.292V89.112ZM693.844 89.112C698.03 89.112 701.989 88.3449 705.701 86.7981L704.163 83.1058C700.963 84.4391 697.53 85.112 693.844 85.112V89.112ZM705.701 86.7981C709.383 85.2639 712.582 83.154 715.274 80.4622L712.446 77.6338C710.145 79.934 707.392 81.7601 704.163 83.1058L705.701 86.7981ZM715.274 80.4622C718.055 77.6815 720.216 74.4371 721.754 70.7452L718.062 69.2068C716.72 72.4269 714.849 75.2305 712.446 77.6338L715.274 80.4622ZM721.754 70.7452C723.301 67.0331 724.068 63.0743 724.068 58.888H720.068C720.068 62.5737 719.395 66.0069 718.062 69.2068L721.754 70.7452ZM724.068 58.888C724.068 54.6125 723.303 50.6048 721.754 46.8868L718.062 48.4252C719.393 51.6192 720.068 55.0995 720.068 58.888H724.068ZM721.761 46.9046C720.225 43.116 718.064 39.8157 715.274 37.0258L712.446 39.8542C714.84 42.2483 716.71 45.092 718.054 48.4074L721.761 46.9046ZM715.301 37.0527C712.607 34.2554 709.4 32.0868 705.701 30.5458L704.163 34.2382C707.376 35.5771 710.121 37.4406 712.419 39.8273L715.301 37.0527ZM705.744 30.5644C702.022 28.9101 698.048 28.088 693.844 28.088V32.088C697.512 32.088 700.93 32.8019 704.12 34.2196L705.744 30.5644ZM760.821 109H758.821C758.821 110.105 759.716 111 760.821 111V109ZM760.821 8.19999V6.19999C759.716 6.19999 758.821 7.09542 758.821 8.19999H760.821ZM840.309 8.19999H842.309C842.309 7.09542 841.413 6.19999 840.309 6.19999V8.19999ZM840.309 29.656V31.656C841.413 31.656 842.309 30.7606 842.309 29.656H840.309ZM785.589 29.656V27.656C784.484 27.656 783.589 28.5514 783.589 29.656H785.589ZM785.589 47.8H783.589C783.589 48.9046 784.484 49.8 785.589 49.8V47.8ZM821.733 47.8H823.733C823.733 46.6954 822.837 45.8 821.733 45.8V47.8ZM821.733 68.536V70.536C822.837 70.536 823.733 69.6406 823.733 68.536H821.733ZM785.589 68.536V66.536C784.484 66.536 783.589 67.4314 783.589 68.536H785.589ZM785.589 87.544H783.589C783.589 88.6486 784.484 89.544 785.589 89.544V87.544ZM840.885 87.544H842.885C842.885 86.4394 841.989 85.544 840.885 85.544V87.544ZM840.885 109V111C841.989 111 842.885 110.105 842.885 109H840.885ZM762.821 109V8.19999H758.821V109H762.821ZM760.821 10.2H840.309V6.19999H760.821V10.2ZM838.309 8.19999V29.656H842.309V8.19999H838.309ZM840.309 27.656H785.589V31.656H840.309V27.656ZM783.589 29.656V47.8H787.589V29.656H783.589ZM785.589 49.8H821.733V45.8H785.589V49.8ZM819.733 47.8V68.536H823.733V47.8H819.733ZM821.733 66.536H785.589V70.536H821.733V66.536ZM783.589 68.536V87.544H787.589V68.536H783.589ZM785.589 89.544H840.885V85.544H785.589V89.544ZM838.885 87.544V109H842.885V87.544H838.885ZM840.885 107H760.821V111H840.885V107ZM847.109 93.592L845.523 92.3738C844.873 93.2207 845.002 94.429 845.818 95.1188L847.109 93.592ZM860.933 75.592L862.192 74.0375C861.773 73.6982 861.234 73.5425 860.699 73.6058C860.163 73.6692 859.676 73.9461 859.347 74.3738L860.933 75.592ZM907.733 86.968L906.798 85.2004C906.79 85.2043 906.783 85.2082 906.776 85.2122L907.733 86.968ZM909.317 73.288L908.141 74.9055C908.152 74.9137 908.164 74.9218 908.175 74.9298L909.317 73.288ZM898.661 69.688L898.316 71.658L898.32 71.6587L898.661 69.688ZM876.485 65.8L876.138 67.7696L876.14 67.77L876.485 65.8ZM857.621 56.44L856.15 57.7941L857.621 56.44ZM861.941 15.256L863.155 16.8459L863.158 16.8435L861.941 15.256ZM914.933 10.648L914.287 12.5405L914.294 12.543L914.933 10.648ZM934.661 21.16L936.287 22.3249C936.905 21.4632 936.742 20.2694 935.917 19.6036L934.661 21.16ZM921.557 39.448L920.326 41.0236C920.755 41.3593 921.302 41.5052 921.842 41.4277C922.381 41.3501 922.866 41.0559 923.183 40.6129L921.557 39.448ZM906.005 30.376L905.287 32.2427L905.299 32.2472L906.005 30.376ZM878.645 29.944L879.587 31.7087C879.593 31.705 879.6 31.7014 879.607 31.6976L878.645 29.944ZM877.061 42.184L875.822 43.7538C875.852 43.7775 875.883 43.8005 875.914 43.8225L877.061 42.184ZM886.277 45.208L886.604 43.2348L886.592 43.2328L886.277 45.208ZM907.157 48.664L906.831 50.6372L906.844 50.6394L907.157 48.664ZM929.189 58.312L927.789 59.7399C927.794 59.7443 927.798 59.7487 927.803 59.7531L929.189 58.312ZM924.869 101.512L923.672 99.9097L923.663 99.9167L924.869 101.512ZM868.421 105.976L867.722 107.85L867.729 107.852L868.421 105.976ZM848.696 94.8102L862.52 76.8102L859.347 74.3738L845.523 92.3738L848.696 94.8102ZM859.675 77.1465C865.821 82.1222 871.648 85.7909 877.154 88.0932L878.697 84.4028C873.642 82.2891 868.141 78.8538 862.192 74.0375L859.675 77.1465ZM877.154 88.0932C882.68 90.404 888.462 91.56 894.485 91.56V87.56C888.989 87.56 883.731 86.508 878.697 84.4028L877.154 88.0932ZM894.485 91.56C900.312 91.56 905.108 90.6782 908.691 88.7238L906.776 85.2122C904.023 86.7138 899.987 87.56 894.485 87.56V91.56ZM908.669 88.7356C912.429 86.745 914.629 83.7448 914.629 79.768H910.629C910.629 81.9352 909.566 83.735 906.798 85.2004L908.669 88.7356ZM914.629 79.768C914.629 76.3566 913.227 73.5714 910.46 71.6462L908.175 74.9298C909.824 76.0766 910.629 77.6114 910.629 79.768H914.629ZM910.494 71.6705C907.996 69.8539 904.064 68.5933 899.002 67.7173L898.32 71.6587C903.243 72.5107 906.415 73.6501 908.141 74.9055L910.494 71.6705ZM899.007 67.718L876.831 63.83L876.14 67.77L898.316 71.658L899.007 67.718ZM876.833 63.8304C868.987 62.4458 863.14 59.4845 859.093 55.0859L856.15 57.7941C860.935 62.9955 867.664 66.2742 876.138 67.7696L876.833 63.8304ZM859.093 55.0859C855.063 50.7048 852.997 45.1143 852.997 38.152H848.997C848.997 45.9737 851.348 52.5752 856.15 57.7941L859.093 55.0859ZM852.997 38.152C852.997 29.0387 856.386 22.0114 863.155 16.8459L860.728 13.6661C852.905 19.6366 848.997 27.8733 848.997 38.152H852.997ZM863.158 16.8435C870.089 11.5325 879.736 8.75999 892.325 8.75999V4.75999C879.186 4.75999 868.578 7.65153 860.725 13.6685L863.158 16.8435ZM892.325 8.75999C899.578 8.75999 906.896 10.0147 914.287 12.5405L915.58 8.75547C907.803 6.09733 900.048 4.75999 892.325 4.75999V8.75999ZM914.294 12.543C921.784 15.0708 928.143 18.4696 933.405 22.7164L935.917 19.6036C930.236 15.0184 923.443 11.4092 915.573 8.75301L914.294 12.543ZM933.036 19.9951L919.932 38.2831L923.183 40.6129L936.287 22.3249L933.036 19.9951ZM922.789 37.8724C917.385 33.6476 912.027 30.5105 906.711 28.5048L905.299 32.2472C910.16 34.0815 915.169 36.9924 920.326 41.0236L922.789 37.8724ZM906.723 28.5093C901.505 26.5024 896.126 25.496 890.597 25.496V29.496C895.629 29.496 900.521 30.4096 905.287 32.2427L906.723 28.5093ZM890.597 25.496C885.416 25.496 881.061 26.3383 877.684 28.1904L879.607 31.6976C882.182 30.2857 885.795 29.496 890.597 29.496V25.496ZM877.704 28.1793C874.339 29.9739 872.325 32.6818 872.325 36.28H876.325C876.325 34.5022 877.192 32.986 879.587 31.7087L877.704 28.1793ZM872.325 36.28C872.325 39.3359 873.478 41.9033 875.822 43.7538L878.301 40.6142C876.997 39.5847 876.325 38.2161 876.325 36.28H872.325ZM875.914 43.8225C878.211 45.4304 881.648 46.4966 885.963 47.1832L886.592 43.2328C882.459 42.5754 879.751 41.6256 878.208 40.5455L875.914 43.8225ZM885.951 47.1812L906.831 50.6372L907.484 46.6908L886.604 43.2348L885.951 47.1812ZM906.844 50.6394C916.291 52.1358 923.192 55.2312 927.789 59.7399L930.59 56.8841C925.203 51.6008 917.416 48.2642 907.47 46.6886L906.844 50.6394ZM927.803 59.7531C932.457 64.2319 934.821 70.0269 934.821 77.32H938.821C938.821 69.0611 936.098 62.1841 930.576 56.8708L927.803 59.7531ZM934.821 77.32C934.821 86.8823 931.121 94.3454 923.672 99.9097L926.066 103.114C934.553 96.7746 938.821 88.1097 938.821 77.32H934.821ZM923.663 99.9167C916.249 105.522 905.973 108.44 892.613 108.44V112.44C906.518 112.44 917.746 109.406 926.076 103.107L923.663 99.9167ZM892.613 108.44C884.801 108.44 876.971 106.999 869.114 104.1L867.729 107.852C876 110.905 884.298 112.44 892.613 112.44V108.44ZM869.121 104.102C861.36 101.204 854.458 97.1904 848.401 92.0652L845.818 95.1188C852.24 100.554 859.547 104.796 867.722 107.85L869.121 104.102ZM948.133 109H946.133C946.133 110.105 947.029 111 948.133 111V109ZM948.133 8.19999V6.19999C947.029 6.19999 946.133 7.09542 946.133 8.19999H948.133ZM972.901 8.19999H974.901C974.901 7.09542 974.006 6.19999 972.901 6.19999V8.19999ZM972.901 109V111C974.006 111 974.901 110.105 974.901 109H972.901ZM950.133 109V8.19999H946.133V109H950.133ZM948.133 10.2H972.901V6.19999H948.133V10.2ZM970.901 8.19999V109H974.901V8.19999H970.901ZM972.901 107H948.133V111H972.901V107ZM1087.25 79.048L1089.1 79.7956V79.7955L1087.25 79.048ZM1076.59 95.752L1078.02 97.1512C1078.03 97.1463 1078.03 97.1414 1078.04 97.1364L1076.59 95.752ZM1060.32 106.696L1061.09 108.543C1061.09 108.541 1061.1 108.539 1061.1 108.537L1060.32 106.696ZM1018.71 106.552L1017.94 108.401L1017.95 108.405L1018.71 106.552ZM1001.57 95.608L1000.17 97.0364C1000.18 97.0459 1000.19 97.0552 1000.2 97.0644L1001.57 95.608ZM990.194 79.048L988.363 79.8525L990.194 79.048ZM990.194 38.152L992.025 38.9565L990.194 38.152ZM1001.57 21.736L1002.95 23.1788C1002.96 23.174 1002.96 23.1692 1002.97 23.1644L1001.57 21.736ZM1018.56 10.648L1017.8 8.79864L1018.56 10.648ZM1082.35 26.344L1083.69 27.83C1084.48 27.1231 1084.58 25.9279 1083.92 25.1007L1082.35 26.344ZM1064.93 42.04L1063.36 43.2805C1063.7 43.714 1064.21 43.9864 1064.76 44.0329C1065.31 44.0794 1065.86 43.8959 1066.27 43.526L1064.93 42.04ZM1053.55 32.68L1052.64 34.4609C1052.65 34.4663 1052.66 34.4716 1052.68 34.4768L1053.55 32.68ZM1028.35 31.672L1029.12 33.5182C1029.14 33.5121 1029.15 33.506 1029.17 33.4996L1028.35 31.672ZM1019.43 37.72L1017.98 36.3327C1017.98 36.3421 1017.97 36.3516 1017.96 36.3612L1019.43 37.72ZM1013.67 47.08L1015.52 47.8314C1015.52 47.8257 1015.52 47.82 1015.53 47.8143L1013.67 47.08ZM1013.67 70.408L1011.81 71.1423C1011.81 71.1623 1011.82 71.1821 1011.83 71.2018L1013.67 70.408ZM1019.71 79.768L1018.25 81.1289C1018.26 81.147 1018.28 81.1648 1018.3 81.1822L1019.71 79.768ZM1028.93 85.96L1028.14 87.7957C1028.15 87.8018 1028.16 87.8077 1028.18 87.8135L1028.93 85.96ZM1055.57 83.8L1056.68 85.4641L1056.69 85.4585L1055.57 83.8ZM1064.35 72.28L1066.27 72.8654C1066.45 72.259 1066.34 71.6005 1065.96 71.0906C1065.58 70.5808 1064.99 70.28 1064.35 70.28V72.28ZM1037.14 72.28H1035.14C1035.14 73.3846 1036.03 74.28 1037.14 74.28V72.28ZM1037.14 50.824V48.824C1036.03 48.824 1035.14 49.7194 1035.14 50.824H1037.14ZM1091.14 50.824H1093.14C1093.14 49.7194 1092.24 48.824 1091.14 48.824V50.824ZM1089.14 58.024C1089.14 65.3759 1087.88 72.1274 1085.39 78.3004L1089.1 79.7955C1091.8 73.1046 1093.14 65.8401 1093.14 58.024H1089.14ZM1085.39 78.3004C1082.89 84.5111 1079.47 89.8592 1075.15 94.3676L1078.04 97.1364C1082.74 92.2368 1086.42 86.4489 1089.1 79.7956L1085.39 78.3004ZM1075.16 94.3528C1070.85 98.7597 1065.65 102.263 1059.54 104.855L1061.1 108.537C1067.67 105.753 1073.31 101.96 1078.02 97.1512L1075.16 94.3528ZM1059.55 104.849C1053.58 107.332 1047.07 108.584 1040.02 108.584V112.584C1047.56 112.584 1054.59 111.244 1061.09 108.543L1059.55 104.849ZM1040.02 108.584C1032.68 108.584 1025.83 107.284 1019.46 104.699L1017.95 108.405C1024.83 111.196 1032.19 112.584 1040.02 112.584V108.584ZM1019.47 104.703C1013.15 102.103 1007.65 98.5843 1002.94 94.1516L1000.2 97.0644C1005.28 101.848 1011.2 105.625 1017.94 108.401L1019.47 104.703ZM1002.97 94.1796C998.357 89.6595 994.709 84.353 992.025 78.2435L988.363 79.8525C991.246 86.415 995.182 92.1485 1000.17 97.0364L1002.97 94.1796ZM992.025 78.2435C989.358 72.1747 988.018 65.6343 988.018 58.6H984.018C984.018 66.1577 985.461 73.2493 988.363 79.8525L992.025 78.2435ZM988.018 58.6C988.018 51.5657 989.358 45.0253 992.025 38.9565L988.363 37.3475C985.461 43.9507 984.018 51.0423 984.018 58.6H988.018ZM992.025 38.9565C994.708 32.8506 998.351 27.598 1002.95 23.1788L1000.18 20.2932C995.188 25.09 991.248 30.7813 988.363 37.3475L992.025 38.9565ZM1002.97 23.1644C1007.58 18.6495 1013.02 15.0924 1019.32 12.4974L1017.8 8.79864C1011.05 11.5796 1005.16 15.4145 1000.17 20.3076L1002.97 23.1644ZM1019.32 12.4974C1025.6 9.91476 1032.34 8.616 1039.59 8.616V4.616C1031.85 4.616 1024.58 6.00524 1017.8 8.79864L1019.32 12.4974ZM1039.59 8.616C1047.84 8.616 1055.62 10.3301 1062.93 13.7552L1064.63 10.1328C1056.77 6.45388 1048.42 4.616 1039.59 4.616V8.616ZM1062.93 13.7552C1070.26 17.1873 1076.2 21.8017 1080.79 27.5873L1083.92 25.1007C1078.91 18.7903 1072.47 13.8047 1064.63 10.1328L1062.93 13.7552ZM1081.02 24.858L1063.59 40.554L1066.27 43.526L1083.69 27.83L1081.02 24.858ZM1066.5 40.7995C1063.07 36.4592 1059.05 33.1387 1054.43 30.8832L1052.68 34.4768C1056.7 36.4453 1060.26 39.3647 1063.36 43.2805L1066.5 40.7995ZM1054.46 30.8991C1049.85 28.5428 1044.88 27.368 1039.59 27.368V31.368C1044.27 31.368 1048.61 32.4012 1052.64 34.4609L1054.46 30.8991ZM1039.59 27.368C1035.29 27.368 1031.27 28.1873 1027.54 29.8444L1029.17 33.4996C1032.35 32.0847 1035.81 31.368 1039.59 31.368V27.368ZM1027.58 29.8258C1023.89 31.3669 1020.68 33.5354 1017.98 36.3327L1020.87 39.1073C1023.16 36.7206 1025.91 34.8571 1029.12 33.5182L1027.58 29.8258ZM1017.96 36.3612C1015.37 39.1542 1013.33 42.4923 1011.81 46.3457L1015.53 47.8143C1016.88 44.3717 1018.68 41.4698 1020.89 39.0788L1017.96 36.3612ZM1011.81 46.3286C1010.27 50.1372 1009.51 54.2344 1009.51 58.6H1013.51C1013.51 54.7096 1014.18 51.1268 1015.52 47.8314L1011.81 46.3286ZM1009.51 58.6C1009.51 63.0559 1010.27 67.243 1011.81 71.1423L1015.53 69.6737C1014.19 66.277 1013.51 62.5921 1013.51 58.6H1009.51ZM1011.83 71.2018C1013.45 74.9509 1015.59 78.2653 1018.25 81.1289L1021.18 78.4071C1018.85 75.8947 1016.95 72.9691 1015.5 69.6142L1011.83 71.2018ZM1018.3 81.1822C1021.08 83.9624 1024.37 86.1652 1028.14 87.7957L1029.72 84.1243C1026.39 82.6828 1023.53 80.7576 1021.13 78.3538L1018.3 81.1822ZM1028.18 87.8135C1031.99 89.3575 1036.08 90.12 1040.45 90.12V86.12C1036.56 86.12 1032.98 85.4425 1029.68 84.1065L1028.18 87.8135ZM1040.45 90.12C1046.56 90.12 1051.99 88.5868 1056.68 85.4641L1054.46 82.1359C1050.5 84.7732 1045.86 86.12 1040.45 86.12V90.12ZM1056.69 85.4585C1061.45 82.249 1064.68 78.0448 1066.27 72.8654L1062.44 71.6946C1061.15 75.9232 1058.52 79.3989 1054.45 82.1415L1056.69 85.4585ZM1064.35 70.28H1037.14V74.28H1064.35V70.28ZM1039.14 72.28V50.824H1035.14V72.28H1039.14ZM1037.14 52.824H1091.14V48.824H1037.14V52.824ZM1089.14 50.824V58.024H1093.14V50.824H1089.14ZM1104.23 8.19999V6.19999C1103.12 6.19999 1102.23 7.09542 1102.23 8.19999H1104.23ZM1127.56 8.19999L1129.13 6.96675C1128.75 6.48275 1128.17 6.19999 1127.56 6.19999V8.19999ZM1173.35 66.664L1171.77 67.8972C1172.3 68.5689 1173.19 68.8329 1174 68.5546C1174.81 68.2764 1175.35 67.5172 1175.35 66.664H1173.35ZM1173.35 8.19999V6.19999C1172.24 6.19999 1171.35 7.09542 1171.35 8.19999H1173.35ZM1196.68 8.19999H1198.68C1198.68 7.09542 1197.78 6.19999 1196.68 6.19999V8.19999ZM1196.68 109V111C1197.78 111 1198.68 110.105 1198.68 109H1196.68ZM1174.79 109L1173.21 110.227C1173.59 110.715 1174.17 111 1174.79 111V109ZM1127.56 48.232L1129.13 47.0046C1128.61 46.3299 1127.71 46.063 1126.91 46.3401C1126.1 46.6173 1125.56 47.3775 1125.56 48.232H1127.56ZM1127.56 109V111C1128.66 111 1129.56 110.105 1129.56 109H1127.56ZM1104.23 109H1102.23C1102.23 110.105 1103.12 111 1104.23 111V109ZM1104.23 10.2H1127.56V6.19999H1104.23V10.2ZM1125.98 9.43324L1171.77 67.8972L1174.92 65.4308L1129.13 6.96675L1125.98 9.43324ZM1175.35 66.664V8.19999H1171.35V66.664H1175.35ZM1173.35 10.2H1196.68V6.19999H1173.35V10.2ZM1194.68 8.19999V109H1198.68V8.19999H1194.68ZM1196.68 107H1174.79V111H1196.68V107ZM1176.37 107.773L1129.13 47.0046L1125.98 49.4594L1173.21 110.227L1176.37 107.773ZM1125.56 48.232V109H1129.56V48.232H1125.56ZM1127.56 107H1104.23V111H1127.56V107ZM1106.23 109V8.19999H1102.23V109H1106.23Z" fill="#288C32"/>
</g>
<defs>
<filter id="filter0_f" x="0.992004" y="0.615967" width="1201.68" height="115.968" filterUnits="userSpaceOnUse" color-interpolation-filters="sRGB">
<feFlood flood-opacity="0" result="BackgroundImageFix"/>
<feBlend mode="normal" in="SourceGraphic" in2="BackgroundImageFix" result="shape"/>
<feGaussianBlur stdDeviation="2" result="effect1_foregroundBlur"/>
</filter>
</defs>
</svg>
