<svg width="375" height="113" viewBox="0 0 375 113" fill="none" xmlns="http://www.w3.org/2000/svg">
<path d="M2.35201 105H0.352005C0.352005 106.105 1.24743 107 2.35201 107V105ZM2.35201 4.19999V2.19999C1.24743 2.19999 0.352005 3.09542 0.352005 4.19999H2.35201ZM68.16 6.648L67.4532 8.5189C67.4697 8.5252 67.4863 8.5312 67.503 8.537L68.16 6.648ZM79.392 13.272L78.0241 14.7311C78.0398 14.7457 78.0557 14.7602 78.0718 14.7743L79.392 13.272ZM86.736 23.352L84.9047 24.156C84.9101 24.1683 84.9157 24.1807 84.9214 24.1929L86.736 23.352ZM84.288 53.304L82.6436 52.1656L84.288 53.304ZM70.608 64.68L69.7757 62.8614C69.271 63.0924 68.885 63.5227 68.71 64.0494C68.535 64.5762 68.5868 65.1519 68.8529 65.639L70.608 64.68ZM92.64 105V107C93.3462 107 94 106.628 94.3602 106.02C94.7204 105.413 94.7337 104.661 94.3951 104.041L92.64 105ZM64.992 105L63.2159 105.919C63.5595 106.583 64.2446 107 64.992 107V105ZM45.984 68.28L47.7601 67.3606C47.4165 66.6968 46.7315 66.28 45.984 66.28V68.28ZM27.12 68.28V66.28C26.0154 66.28 25.12 67.1754 25.12 68.28H27.12ZM27.12 105V107C28.2246 107 29.12 106.105 29.12 105H27.12ZM27.12 25.368V23.368C26.0154 23.368 25.12 24.2634 25.12 25.368H27.12ZM27.12 48.12H25.12C25.12 49.2246 26.0154 50.12 27.12 50.12V48.12ZM60.816 44.952L59.4948 43.4506C59.4846 43.4595 59.4745 43.4685 59.4646 43.4777L60.816 44.952ZM60.816 28.536L59.4646 30.0103C59.4745 30.0194 59.4846 30.0285 59.4947 30.0374L60.816 28.536ZM4.35201 105V4.19999H0.352005V105H4.35201ZM2.35201 6.2H53.904V2.19999H2.35201V6.2ZM53.904 6.2C58.8759 6.2 63.385 6.9821 67.4532 8.5189L68.8668 4.77705C64.295 3.04991 59.3001 2.19999 53.904 2.19999V6.2ZM67.503 8.537C71.6839 9.9912 75.1779 12.0627 78.0241 14.7311L80.7599 11.8129C77.4621 8.7213 73.4681 6.3768 68.817 4.759L67.503 8.537ZM78.0718 14.7743C81.0162 17.3618 83.2917 20.482 84.9047 24.156L88.5673 22.548C86.7243 18.35 84.1038 14.7502 80.7122 11.7697L78.0718 14.7743ZM84.9214 24.1929C86.6132 27.8437 87.472 31.8736 87.472 36.312H91.472C91.472 31.3424 90.5068 26.7322 88.5506 22.5111L84.9214 24.1929ZM87.472 36.312C87.472 42.26 85.8576 47.5232 82.6436 52.1656L85.9324 54.4424C89.6304 49.1008 91.472 43.036 91.472 36.312H87.472ZM82.6436 52.1656C79.3978 56.854 75.1217 60.4149 69.7757 62.8614L71.4402 66.4986C77.4223 63.7611 82.2662 59.738 85.9324 54.4424L82.6436 52.1656ZM68.8529 65.639L90.8849 105.959L94.3951 104.041L72.3631 63.721L68.8529 65.639ZM92.64 103H64.992V107H92.64V103ZM66.7681 104.081L47.7601 67.3606L44.2079 69.1994L63.2159 105.919L66.7681 104.081ZM45.984 66.28H27.12V70.28H45.984V66.28ZM25.12 68.28V105H29.12V68.28H25.12ZM27.12 103H2.35201V107H27.12V103ZM51.6 23.368H27.12V27.368H51.6V23.368ZM25.12 25.368V48.12H29.12V25.368H25.12ZM27.12 50.12H51.6V46.12H27.12V50.12ZM51.6 50.12C55.8205 50.12 59.4148 48.9496 62.1674 46.4263L59.4646 43.4777C57.6092 45.1784 55.0595 46.12 51.6 46.12V50.12ZM62.1373 46.4534C64.9931 43.9403 66.416 40.6454 66.416 36.744H62.416C62.416 39.5625 61.4389 41.7397 59.4948 43.4506L62.1373 46.4534ZM66.416 36.744C66.416 32.8425 64.9931 29.5477 62.1373 27.0346L59.4947 30.0374C61.4389 31.7483 62.416 33.9255 62.416 36.744H66.416ZM62.1674 27.0617C59.4148 24.5384 55.8205 23.368 51.6 23.368V27.368C55.0595 27.368 57.6092 28.3096 59.4646 30.0103L62.1674 27.0617ZM102.196 105H100.196C100.196 106.105 101.091 107 102.196 107V105ZM102.196 4.19999V2.19999C101.091 2.19999 100.196 3.09542 100.196 4.19999H102.196ZM126.964 4.19999H128.964C128.964 3.09542 128.068 2.19999 126.964 2.19999V4.19999ZM126.964 105V107C128.068 107 128.964 106.105 128.964 105H126.964ZM104.196 105V4.19999H100.196V105H104.196ZM102.196 6.2H126.964V2.19999H102.196V6.2ZM124.964 4.19999V105H128.964V4.19999H124.964ZM126.964 103H102.196V107H126.964V103ZM138.208 105H136.208C136.208 106.105 137.104 107 138.208 107V105ZM138.208 88.296L136.671 87.0167C136.372 87.3759 136.208 87.8286 136.208 88.296H138.208ZM190.336 25.656L191.873 26.9353C192.37 26.339 192.476 25.5095 192.147 24.8071C191.818 24.1046 191.112 23.656 190.336 23.656V25.656ZM138.64 25.656H136.64C136.64 26.7606 137.536 27.656 138.64 27.656V25.656ZM138.64 4.19999V2.19999C137.536 2.19999 136.64 3.09542 136.64 4.19999H138.64ZM222.592 4.19999H224.592C224.592 3.09542 223.697 2.19999 222.592 2.19999V4.19999ZM222.592 20.904L224.131 22.1812C224.429 21.8223 224.592 21.3705 224.592 20.904H222.592ZM170.608 83.544L169.069 82.2668C168.574 82.8634 168.468 83.6924 168.798 84.3942C169.127 85.0959 169.833 85.544 170.608 85.544V83.544ZM223.024 83.544H225.024C225.024 82.4394 224.129 81.544 223.024 81.544V83.544ZM223.024 105V107C224.129 107 225.024 106.105 225.024 105H223.024ZM140.208 105V88.296H136.208V105H140.208ZM139.745 89.5753L191.873 26.9353L188.799 24.3767L136.671 87.0167L139.745 89.5753ZM190.336 23.656H138.64V27.656H190.336V23.656ZM140.64 25.656V4.19999H136.64V25.656H140.64ZM138.64 6.2H222.592V2.19999H138.64V6.2ZM220.592 4.19999V20.904H224.592V4.19999H220.592ZM221.053 19.6268L169.069 82.2668L172.147 84.8212L224.131 22.1812L221.053 19.6268ZM170.608 85.544H223.024V81.544H170.608V85.544ZM221.024 83.544V105H225.024V83.544H221.024ZM223.024 103H138.208V107H223.024V103ZM330.526 74.472L328.689 73.6807C328.687 73.6854 328.685 73.69 328.683 73.6946L330.526 74.472ZM319.726 90.744L318.297 89.3444C317.592 90.0637 317.532 91.1947 318.157 91.9845L319.726 90.744ZM329.518 103.128L330.212 105.004C330.812 104.782 331.27 104.285 331.443 103.669C331.616 103.052 331.484 102.39 331.087 101.888L329.518 103.128ZM308.494 110.904L306.927 112.147C307.464 112.824 308.376 113.08 309.188 112.78L308.494 110.904ZM301.87 102.552L303.437 101.309C302.894 100.625 301.971 100.372 301.155 100.684L301.87 102.552ZM291.646 105.432L291.274 103.467C291.253 103.471 291.233 103.475 291.212 103.48L291.646 105.432ZM259.534 102.552L260.286 100.699L259.534 102.552ZM242.398 91.608L240.998 93.0364C241.003 93.0412 241.008 93.046 241.013 93.0508L242.398 91.608ZM231.022 75.048L229.186 75.8425L229.191 75.8525L231.022 75.048ZM231.022 34.296L232.853 35.1006L232.857 35.0904L231.022 34.296ZM242.398 17.736L243.783 19.1788C243.788 19.174 243.793 19.1692 243.798 19.1644L242.398 17.736ZM319.006 17.736L317.606 19.1644C317.611 19.1692 317.616 19.174 317.621 19.1788L319.006 17.736ZM330.382 34.296L328.546 35.0905L328.551 35.1005L330.382 34.296ZM298.27 63.384L299.848 62.1561C299.313 61.4679 298.394 61.2057 297.576 61.5082L298.27 63.384ZM304.318 71.16L302.739 72.3879C303.134 72.8953 303.748 73.1821 304.391 73.1587C305.033 73.1352 305.625 72.8043 305.982 72.2694L304.318 71.16ZM307.774 63.528L305.858 62.9533C305.854 62.9675 305.85 62.9818 305.846 62.9961L307.774 63.528ZM306.91 43.08L305.049 43.8143C305.052 43.82 305.054 43.8257 305.056 43.8314L306.91 43.08ZM300.862 33.72L299.421 35.1073C299.43 35.1163 299.439 35.1253 299.448 35.1342L300.862 33.72ZM291.934 27.672L291.121 29.4996C291.136 29.506 291.15 29.5121 291.165 29.5182L291.934 27.672ZM269.47 27.672L270.239 29.5182C270.253 29.5121 270.268 29.506 270.282 29.4996L269.47 27.672ZM260.398 33.72L258.984 32.3058C258.975 32.3147 258.966 32.3237 258.957 32.3327L260.398 33.72ZM254.494 43.08L256.347 43.8314C256.35 43.8257 256.352 43.82 256.354 43.8143L254.494 43.08ZM254.494 66.264L252.633 66.9983C252.636 67.004 252.638 67.0097 252.64 67.0154L254.494 66.264ZM260.398 75.48L258.957 76.8673C258.966 76.8763 258.975 76.8853 258.984 76.8942L260.398 75.48ZM269.47 81.672L268.657 83.4996C268.672 83.506 268.686 83.5121 268.701 83.5182L269.47 81.672ZM283.726 83.688L283.907 85.6798L283.726 83.688ZM286.75 83.256L287.142 85.2172C287.823 85.0809 288.385 84.6007 288.626 83.9488C288.867 83.2969 288.752 82.5668 288.322 82.0204L286.75 83.256ZM277.246 71.16L276.552 69.2842C275.952 69.506 275.495 70.0011 275.321 70.6164C275.147 71.2316 275.278 71.8929 275.673 72.3956L277.246 71.16ZM332.558 54.6C332.558 61.3447 331.266 67.6986 328.689 73.6807L332.363 75.2632C335.162 68.7654 336.558 61.8713 336.558 54.6H332.558ZM328.683 73.6946C326.187 79.61 322.727 84.8223 318.297 89.3444L321.154 92.1436C325.941 87.2577 329.68 81.622 332.368 75.2494L328.683 73.6946ZM318.157 91.9845L327.949 104.368L331.087 101.888L321.295 89.5035L318.157 91.9845ZM328.824 101.252L307.8 109.028L309.188 112.78L330.212 105.004L328.824 101.252ZM310.061 109.661L303.437 101.309L300.303 103.795L306.927 112.147L310.061 109.661ZM301.155 100.684C298.006 101.888 294.713 102.816 291.274 103.467L292.018 107.397C295.682 106.704 299.205 105.712 302.584 104.42L301.155 100.684ZM291.212 103.48C287.91 104.213 284.408 104.584 280.702 104.584V108.584C284.675 108.584 288.47 108.187 292.08 107.384L291.212 103.48ZM280.702 104.584C273.459 104.584 266.66 103.285 260.286 100.699L258.782 104.405C265.656 107.195 272.968 108.584 280.702 108.584V104.584ZM260.286 100.699C253.879 98.099 248.387 94.5848 243.783 90.1652L241.013 93.0508C246.009 97.847 251.94 101.629 258.782 104.405L260.286 100.699ZM243.798 90.1796C239.185 85.6595 235.537 80.353 232.853 74.2435L229.191 75.8525C232.074 82.415 236.01 88.1485 240.998 93.0364L243.798 90.1796ZM232.857 74.2536C230.185 68.0793 228.846 61.5344 228.846 54.6H224.846C224.846 62.0656 226.291 69.1527 229.186 75.8424L232.857 74.2536ZM228.846 54.6C228.846 47.6656 230.185 41.1727 232.853 35.1005L229.191 33.4914C226.291 40.0913 224.846 47.1344 224.846 54.6H228.846ZM232.857 35.0904C235.541 28.8891 239.185 23.593 243.783 19.1788L241.013 16.2932C236.011 21.095 232.07 26.8389 229.186 33.5015L232.857 35.0904ZM243.798 19.1644C248.4 14.6543 253.888 11.0975 260.286 8.5012L258.782 4.79477C251.932 7.5745 245.996 11.4097 240.998 16.3076L243.798 19.1644ZM260.286 8.5012C266.66 5.91473 273.459 4.616 280.702 4.616V0.615997C272.968 0.615997 265.656 2.00526 258.782 4.79477L260.286 8.5012ZM280.702 4.616C287.944 4.616 294.744 5.91473 301.118 8.5012L302.622 4.79477C295.748 2.00526 288.435 0.615997 280.702 0.615997V4.616ZM301.118 8.5012C307.516 11.0975 313.004 14.6543 317.606 19.1644L320.406 16.3076C315.408 11.4097 309.472 7.5745 302.622 4.79477L301.118 8.5012ZM317.621 19.1788C322.219 23.593 325.862 28.8891 328.546 35.0904L332.217 33.5015C329.333 26.8389 325.393 21.095 320.391 16.2932L317.621 19.1788ZM328.551 35.1005C331.219 41.1727 332.558 47.6656 332.558 54.6H336.558C336.558 47.1344 335.113 40.0913 332.213 33.4914L328.551 35.1005ZM296.691 64.6119L302.739 72.3879L305.896 69.9321L299.848 62.1561L296.691 64.6119ZM305.982 72.2694C307.641 69.7806 308.88 67.0403 309.702 64.0599L305.846 62.9961C305.132 65.5837 304.066 67.9314 302.654 70.0506L305.982 72.2694ZM309.689 64.1027C310.611 61.0322 311.07 57.8624 311.07 54.6H307.07C307.07 57.4816 306.665 60.2638 305.858 62.9533L309.689 64.1027ZM311.07 54.6C311.07 50.2344 310.307 46.1372 308.763 42.3286L305.056 43.8314C306.392 47.1268 307.07 50.7096 307.07 54.6H311.07ZM308.77 42.3457C307.237 38.4609 305.075 35.1048 302.276 32.3058L299.448 35.1342C301.833 37.5192 303.703 40.403 305.049 43.8143L308.77 42.3457ZM302.302 32.3327C299.609 29.5354 296.401 27.3669 292.703 25.8258L291.165 29.5182C294.378 30.8571 297.123 32.7206 299.421 35.1073L302.302 32.3327ZM292.746 25.8444C289.018 24.1873 284.995 23.368 280.702 23.368V27.368C284.473 27.368 287.938 28.0847 291.121 29.4996L292.746 25.8444ZM280.702 23.368C276.409 23.368 272.386 24.1873 268.657 25.8444L270.282 29.4996C273.466 28.0847 276.931 27.368 280.702 27.368V23.368ZM268.701 25.8258C265.009 27.3641 261.764 29.5251 258.984 32.3058L261.812 35.1342C264.215 32.7309 267.019 30.8599 270.239 29.5182L268.701 25.8258ZM258.957 32.3327C256.264 35.1292 254.161 38.4767 252.633 42.3457L256.354 43.8143C257.707 40.3873 259.539 37.4948 261.838 35.1073L258.957 32.3327ZM252.64 42.3286C251.096 46.1372 250.334 50.2344 250.334 54.6H254.334C254.334 50.7096 255.011 47.1268 256.347 43.8314L252.64 42.3286ZM250.334 54.6C250.334 58.966 251.096 63.1044 252.633 66.9983L256.354 65.5297C255.011 62.1276 254.334 58.49 254.334 54.6H250.334ZM252.64 67.0154C254.17 70.7882 256.273 74.0799 258.957 76.8673L261.838 74.0927C259.531 71.6961 257.698 68.8438 256.347 65.5126L252.64 67.0154ZM258.984 76.8942C261.755 79.6653 264.984 81.8671 268.657 83.4996L270.282 79.8444C267.043 78.4049 264.225 76.4787 261.812 74.0658L258.984 76.8942ZM268.701 83.5182C272.419 85.0673 276.426 85.832 280.702 85.832V81.832C276.913 81.832 273.433 81.1567 270.239 79.8258L268.701 83.5182ZM280.702 85.832C281.728 85.832 282.797 85.7807 283.907 85.6798L283.545 81.6962C282.543 81.7873 281.595 81.832 280.702 81.832V85.832ZM283.907 85.6798C285.028 85.5779 286.107 85.4242 287.142 85.2172L286.358 81.2948C285.473 81.4718 284.536 81.6061 283.545 81.6962L283.907 85.6798ZM288.322 82.0204L278.818 69.9244L275.673 72.3956L285.177 84.4916L288.322 82.0204ZM277.94 73.0358L298.964 65.2598L297.576 61.5082L276.552 69.2842L277.94 73.0358ZM347.727 105H345.727C345.727 106.105 346.622 107 347.727 107V105ZM347.727 4.19999V2.19999C346.622 2.19999 345.727 3.09542 345.727 4.19999H347.727ZM372.495 4.19999H374.495C374.495 3.09542 373.6 2.19999 372.495 2.19999V4.19999ZM372.495 105V107C373.6 107 374.495 106.105 374.495 105H372.495ZM349.727 105V4.19999H345.727V105H349.727ZM347.727 6.2H372.495V2.19999H347.727V6.2ZM370.495 4.19999V105H374.495V4.19999H370.495ZM372.495 103H347.727V107H372.495V103Z" fill="#288C32"/>
</svg>
