<svg xmlns:xlink="http://www.w3.org/1999/xlink" width="445" xmlns="http://www.w3.org/2000/svg" height="323" id="screenshot-b21aef60-3ef6-11ed-9e96-d5ea72e0ce91" viewBox="-0 -0 445 323" style="-webkit-print-color-adjust: exact;" fill="none" version="1.1"><g id="shape-b21aef60-3ef6-11ed-9e96-d5ea72e0ce91" width="786.81995" height="572.25773" xmlns:xlink="http://www.w3.org/1999/xlink" rx="0" ry="0" style="fill: rgb(0, 0, 0);"><g id="shape-b21f0e10-3ef6-11ed-9e96-d5ea72e0ce91"><g id="fills-b21f0e10-3ef6-11ed-9e96-d5ea72e0ce91"><ellipse rx="14.499999999999886" ry="14.499999999999943" cx="259.49999999999943" cy="41.499999999999716" transform="matrix(1,0,0,1,0,0)" style="fill: rgb(240, 247, 238); fill-opacity: 1;"/></g></g><g id="shape-b222dea0-3ef6-11ed-9e96-d5ea72e0ce91"><g id="fills-b222dea0-3ef6-11ed-9e96-d5ea72e0ce91"><path rx="0" ry="0" d="M375.588,280.682C398.015,263.585,408.727,234.854,402.021,207.447C401.854,206.766,401.678,206.086,401.493,205.408C397.047,189.14,386.048,173.678,370.018,168.479C356.557,164.114,341.865,167.471,327.823,165.735C300.257,162.328,278.886,140.004,263.848,116.63C248.811,93.256,237.254,67.092,217.273,47.782C184.336,15.952,130.609,9.1,89.773,29.818C48.937,50.537,22.925,96.503,24.034,142.314C25.144,188.125,52.315,231.924,91.774,255.162C106.27,263.699,123.036,269.746,139.721,267.63C154.199,265.794,167.354,258.008,181.763,255.696C204.418,252.062,226.929,262.314,246.524,274.261C266.119,286.209,285.046,300.37,307.313,305.908C328.935,311.286,355.721,295.828,375.588,280.682ZZ" style="fill: rgb(51, 161, 253); fill-opacity: 1;"/></g></g><g id="shape-b2285ce0-3ef6-11ed-9e96-d5ea72e0ce91"><g id="fills-b2285ce0-3ef6-11ed-9e96-d5ea72e0ce91"><path rx="0" ry="0" d="M345.027,31.266C344.534,30.939,344.035,30.628,343.543,30.311C329.299,21.221,314.032,13.835,298.057,8.308L294.353,59.3L270.871,59.3L270.871,0.865C269.393,0.56,267.904,0.271,266.414,0L266.414,59.3L238.509,59.3C206.519,59.3,180.586,33.421,180.586,1.498L180.586,1.498C179.091,1.82,177.607,2.165,176.123,2.532L176.123,59.3L153.394,59.3L149.866,10.676C133.449,16.959,117.864,25.222,103.457,35.279C103.208,35.449,102.959,35.624,102.715,35.794C101.464,36.67,100.229,37.563,99,38.467L99,233L165.985,233L164.801,216.638L158.288,126.801L289.454,126.801L282.941,216.638L281.757,233L348,233L348,33.233C347.014,32.566,346.023,31.911,345.027,31.266ZZM176.123,111.964L157.212,111.964L153.717,63.754L176.123,63.754ZM266.414,111.964L234.652,111.964L234.652,111.009C234.652,110.082,234.282,109.192,233.625,108.537C232.967,107.882,232.075,107.515,231.146,107.516L217.338,107.516C216.409,107.516,215.519,107.884,214.862,108.539C214.206,109.194,213.837,110.083,213.838,111.009L213.838,111.964L180.586,111.964L180.586,63.754L266.414,63.754ZM270.871,111.964L270.871,63.754L294.03,63.754L290.536,111.964Z" style="fill: rgb(63, 61, 86);"/></g></g><g id="shape-b229e380-3ef6-11ed-9e96-d5ea72e0ce91"><g id="fills-b229e380-3ef6-11ed-9e96-d5ea72e0ce91"><path rx="0" ry="0" d="M0,245C4.913,250.843,10.227,256.334,15.904,261.432L429.096,262C434.773,256.901,440.087,251.41,445,245.568Z" style="fill: rgb(63, 61, 86);"/></g></g><g id="shape-b22c0660-3ef6-11ed-9e96-d5ea72e0ce91"><g id="fills-b22c0660-3ef6-11ed-9e96-d5ea72e0ce91"><path rx="0" ry="0" d="M280,192.278L280,239.72C280.001,240.979,281.05,241.999,282.345,242L354.655,242C355.95,241.999,356.999,240.979,357,239.72L357,192.278C356.997,191.02,355.948,190.002,354.655,190L282.345,190C281.052,190.002,280.003,191.02,280,192.278ZZ" style="fill: rgb(63, 61, 86);"/></g></g><g id="shape-b22ec580-3ef6-11ed-9e96-d5ea72e0ce91"><g id="fills-b22ec580-3ef6-11ed-9e96-d5ea72e0ce91"><path rx="0" ry="0" d="M282,192.254L282,239.749C282.001,240.439,282.557,240.999,283.243,241L353.757,241C354.443,240.999,354.999,240.439,355,239.749L355,192.254C355,191.562,354.444,191.002,353.757,191L283.243,191C282.556,191.002,282,191.562,282,192.254ZZ" style="fill: rgb(33, 118, 255); fill-opacity: 1;"/></g></g><g id="shape-b230e860-3ef6-11ed-9e96-d5ea72e0ce91"><g id="fills-b230e860-3ef6-11ed-9e96-d5ea72e0ce91"><path rx="0" ry="0" d="M278.315,251.443C278.579,251.797,278.981,252.002,279.404,252L355.6,252C356.022,251.999,356.421,251.796,356.687,251.445C356.953,251.095,357.057,250.635,356.97,250.194L355.787,244.189C355.688,243.691,355.359,243.282,354.914,243.1C354.756,243.034,354.587,243,354.417,243L280.582,243C280.412,243,280.243,243.034,280.085,243.1C279.64,243.282,279.311,243.691,279.212,244.189L278.029,250.194C277.944,250.635,278.049,251.094,278.315,251.443ZZ" style="fill: rgb(47, 46, 65);"/></g></g><g id="shape-b231f9d0-3ef6-11ed-9e96-d5ea72e0ce91"><g id="fills-b231f9d0-3ef6-11ed-9e96-d5ea72e0ce91"><rect rx="0.48819" ry="0.48819" x="351.99999999999955" y="243.99999999999977" transform="matrix(-1,0,0,-1,705.999998,489.000003)" width="2" height="1" style="fill: rgb(63, 61, 86);"/></g></g><g id="shape-b2329610-3ef6-11ed-9e96-d5ea72e0ce91"><g id="fills-b2329610-3ef6-11ed-9e96-d5ea72e0ce91"><rect rx="0.48819" ry="0.48819" x="348.99999999999955" y="243.99999999999977" transform="matrix(-1,0,0,-1,699.999998,489.000003)" width="2" height="1" style="fill: rgb(63, 61, 86);"/></g></g><g id="shape-b233a780-3ef6-11ed-9e96-d5ea72e0ce91"><g id="fills-b233a780-3ef6-11ed-9e96-d5ea72e0ce91"><rect rx="0.48819" ry="0.48819" x="343.99999999999955" y="243.99999999999977" transform="matrix(-1,0,0,-1,690.000003,488.999996)" width="2" height="1" style="fill: rgb(63, 61, 86);"/></g></g><g id="shape-b234e000-3ef6-11ed-9e96-d5ea72e0ce91"><g id="fills-b234e000-3ef6-11ed-9e96-d5ea72e0ce91"><rect rx="0.48819" ry="0.48819" x="338.99999999999955" y="243.99999999999977" transform="matrix(-1,0,0,-1,680.000003,488.999996)" width="2" height="1" style="fill: rgb(63, 61, 86);"/></g></g><g id="shape-b2361880-3ef6-11ed-9e96-d5ea72e0ce91"><g id="fills-b2361880-3ef6-11ed-9e96-d5ea72e0ce91"><rect rx="0.48819" ry="0.48819" x="333.99999999999955" y="243.99999999999977" transform="matrix(-1,0,0,-1,670.000003,488.999996)" width="2" height="1" style="fill: rgb(63, 61, 86);"/></g></g><g id="shape-b2375100-3ef6-11ed-9e96-d5ea72e0ce91"><g id="fills-b2375100-3ef6-11ed-9e96-d5ea72e0ce91"><rect rx="0.48819" ry="0.48819" x="328.99999999999955" y="243.99999999999977" transform="matrix(-1,0,0,-1,660.000003,488.999996)" width="2" height="1" style="fill: rgb(63, 61, 86);"/></g></g><g id="shape-b237ed40-3ef6-11ed-9e96-d5ea72e0ce91"><g id="fills-b237ed40-3ef6-11ed-9e96-d5ea72e0ce91"><rect rx="0.48819" ry="0.48819" x="323.99999999999955" y="243.99999999999977" transform="matrix(-1,0,0,-1,649.999998,489.000003)" width="2" height="1" style="fill: rgb(63, 61, 86);"/></g></g><g id="shape-b2386270-3ef6-11ed-9e96-d5ea72e0ce91"><g id="fills-b2386270-3ef6-11ed-9e96-d5ea72e0ce91"><rect rx="0.48819" ry="0.48819" x="318.99999999999955" y="243.99999999999977" transform="matrix(-1,0,0,-1,640.000003,488.999996)" width="2" height="1" style="fill: rgb(63, 61, 86);"/></g></g><g id="shape-b23973e0-3ef6-11ed-9e96-d5ea72e0ce91"><g id="fills-b23973e0-3ef6-11ed-9e96-d5ea72e0ce91"><rect rx="0.48819" ry="0.48819" x="314.99999999999955" y="243.99999999999977" transform="matrix(-1,0,0,-1,632.000003,488.999996)" width="2" height="1" style="fill: rgb(63, 61, 86);"/></g></g><g id="shape-b23a1020-3ef6-11ed-9e96-d5ea72e0ce91"><g id="fills-b23a1020-3ef6-11ed-9e96-d5ea72e0ce91"><rect rx="0.48819" ry="0.48819" x="309.99999999999955" y="243.99999999999977" transform="matrix(-1,0,0,-1,622.000003,488.999996)" width="2" height="1" style="fill: rgb(63, 61, 86);"/></g></g><g id="shape-b23ad370-3ef6-11ed-9e96-d5ea72e0ce91"><g id="fills-b23ad370-3ef6-11ed-9e96-d5ea72e0ce91"><rect rx="0.48819" ry="0.48819" x="304.99999999999955" y="243.99999999999977" transform="matrix(-1,0,0,-1,612.000003,488.999996)" width="2" height="1" style="fill: rgb(63, 61, 86);"/></g></g><g id="shape-b23b96c0-3ef6-11ed-9e96-d5ea72e0ce91"><g id="fills-b23b96c0-3ef6-11ed-9e96-d5ea72e0ce91"><rect rx="0.48819" ry="0.48819" x="299.99999999999955" y="243.99999999999977" transform="matrix(-1,0,0,-1,601.999998,489.000003)" width="2" height="1" style="fill: rgb(63, 61, 86);"/></g></g><g id="shape-b23c5a10-3ef6-11ed-9e96-d5ea72e0ce91"><g id="fills-b23c5a10-3ef6-11ed-9e96-d5ea72e0ce91"><rect rx="0.48819" ry="0.48819" x="294.99999999999955" y="243.99999999999977" transform="matrix(-1,0,0,-1,592.000003,488.999997)" width="2" height="1" style="fill: rgb(63, 61, 86);"/></g></g><g id="shape-b23d1d60-3ef6-11ed-9e96-d5ea72e0ce91"><g id="fills-b23d1d60-3ef6-11ed-9e96-d5ea72e0ce91"><rect rx="0.48819" ry="0.48819" x="289.99999999999955" y="243.99999999999977" transform="matrix(-1,0,0,-1,582.000003,488.999997)" width="2" height="1" style="fill: rgb(63, 61, 86);"/></g></g><g id="shape-b23e07c0-3ef6-11ed-9e96-d5ea72e0ce91"><g id="fills-b23e07c0-3ef6-11ed-9e96-d5ea72e0ce91"><rect rx="0.48819" ry="0.48819" x="284.99999999999955" y="243.99999999999977" transform="matrix(-1,0,0,-1,571.999998,489.000003)" width="2" height="1" style="fill: rgb(63, 61, 86);"/></g></g><g id="shape-b23ea400-3ef6-11ed-9e96-d5ea72e0ce91"><g id="fills-b23ea400-3ef6-11ed-9e96-d5ea72e0ce91"><rect rx="0.48819" ry="0.48819" x="281.99999999999955" y="243.99999999999977" transform="matrix(-1,0,0,-1,566.000003,488.999997)" width="2" height="1" style="fill: rgb(63, 61, 86);"/></g></g><g id="shape-b23f8e60-3ef6-11ed-9e96-d5ea72e0ce91"><g id="fills-b23f8e60-3ef6-11ed-9e96-d5ea72e0ce91"><rect rx="0.48819" ry="0.48819" x="351.99999999999955" y="245.99999999999977" transform="matrix(-1,0,0,-1,706.000003,492.999996)" width="2" height="1.0000000000001137" style="fill: rgb(63, 61, 86);"/></g></g><g id="shape-b24078c0-3ef6-11ed-9e96-d5ea72e0ce91"><g id="fills-b24078c0-3ef6-11ed-9e96-d5ea72e0ce91"><rect rx="0.48819" ry="0.48819" x="348.99999999999955" y="245.99999999999977" transform="matrix(-1,0,0,-1,699.999998,493.000003)" width="2" height="1.0000000000001137" style="fill: rgb(63, 61, 86);"/></g></g><g id="shape-b2413c10-3ef6-11ed-9e96-d5ea72e0ce91"><g id="fills-b2413c10-3ef6-11ed-9e96-d5ea72e0ce91"><rect rx="0.48819" ry="0.48819" x="343.99999999999955" y="245.99999999999977" transform="matrix(-1,0,0,-1,689.999998,493.000003)" width="2" height="1.0000000000001137" style="fill: rgb(63, 61, 86);"/></g></g><g id="shape-b241d850-3ef6-11ed-9e96-d5ea72e0ce91"><g id="fills-b241d850-3ef6-11ed-9e96-d5ea72e0ce91"><rect rx="0.48819" ry="0.48819" x="338.99999999999955" y="245.99999999999977" transform="matrix(-1,0,0,-1,679.999998,493.000003)" width="2" height="1.0000000000001137" style="fill: rgb(63, 61, 86);"/></g></g><g id="shape-b2424d80-3ef6-11ed-9e96-d5ea72e0ce91"><g id="fills-b2424d80-3ef6-11ed-9e96-d5ea72e0ce91"><rect rx="0.48819" ry="0.48819" x="333.99999999999955" y="245.99999999999977" transform="matrix(-1,0,0,-1,669.999998,493.000003)" width="2" height="1.0000000000001137" style="fill: rgb(63, 61, 86);"/></g></g><g id="shape-b242e9c0-3ef6-11ed-9e96-d5ea72e0ce91"><g id="fills-b242e9c0-3ef6-11ed-9e96-d5ea72e0ce91"><rect rx="0.48819" ry="0.48819" x="328.99999999999955" y="245.99999999999977" transform="matrix(-1,0,0,-1,660.000003,492.999996)" width="2" height="1.0000000000001137" style="fill: rgb(63, 61, 86);"/></g></g><g id="shape-b243fb30-3ef6-11ed-9e96-d5ea72e0ce91"><g id="fills-b243fb30-3ef6-11ed-9e96-d5ea72e0ce91"><rect rx="0.48819" ry="0.48819" x="323.99999999999955" y="245.99999999999977" transform="matrix(-1,0,0,-1,649.999998,493.000003)" width="2" height="1.0000000000001137" style="fill: rgb(63, 61, 86);"/></g></g><g id="shape-b244be80-3ef6-11ed-9e96-d5ea72e0ce91"><g id="fills-b244be80-3ef6-11ed-9e96-d5ea72e0ce91"><rect rx="0.48819" ry="0.48819" x="318.99999999999955" y="245.99999999999977" transform="matrix(-1,0,0,-1,639.999998,493.000003)" width="2" height="1.0000000000001137" style="fill: rgb(63, 61, 86);"/></g></g><g id="shape-b2455ac0-3ef6-11ed-9e96-d5ea72e0ce91"><g id="fills-b2455ac0-3ef6-11ed-9e96-d5ea72e0ce91"><rect rx="0.48819" ry="0.48819" x="314.99999999999955" y="245.99999999999977" transform="matrix(-1,0,0,-1,631.999998,493.000003)" width="2" height="1.0000000000001137" style="fill: rgb(63, 61, 86);"/></g></g><g id="shape-b2469340-3ef6-11ed-9e96-d5ea72e0ce91"><g id="fills-b2469340-3ef6-11ed-9e96-d5ea72e0ce91"><rect rx="0.48819" ry="0.48819" x="309.99999999999955" y="245.99999999999977" transform="matrix(-1,0,0,-1,622.000003,492.999996)" width="2" height="1.0000000000001137" style="fill: rgb(63, 61, 86);"/></g></g><g id="shape-b2470870-3ef6-11ed-9e96-d5ea72e0ce91"><g id="fills-b2470870-3ef6-11ed-9e96-d5ea72e0ce91"><rect rx="0.48819" ry="0.48819" x="304.99999999999955" y="245.99999999999977" transform="matrix(-1,0,0,-1,612.000003,492.999996)" width="2" height="1.0000000000001137" style="fill: rgb(63, 61, 86);"/></g></g><g id="shape-b247a4b0-3ef6-11ed-9e96-d5ea72e0ce91"><g id="fills-b247a4b0-3ef6-11ed-9e96-d5ea72e0ce91"><rect rx="0.48819" ry="0.48819" x="299.99999999999955" y="245.99999999999977" transform="matrix(-1,0,0,-1,602.000003,492.999997)" width="2" height="1.0000000000001137" style="fill: rgb(63, 61, 86);"/></g></g><g id="shape-b248b620-3ef6-11ed-9e96-d5ea72e0ce91"><g id="fills-b248b620-3ef6-11ed-9e96-d5ea72e0ce91"><rect rx="0.48819" ry="0.48819" x="294.99999999999955" y="245.99999999999977" transform="matrix(-1,0,0,-1,591.999998,493.000003)" width="2" height="1.0000000000001137" style="fill: rgb(63, 61, 86);"/></g></g><g id="shape-b2492b50-3ef6-11ed-9e96-d5ea72e0ce91"><g id="fills-b2492b50-3ef6-11ed-9e96-d5ea72e0ce91"><rect rx="0.48819" ry="0.48819" x="289.99999999999955" y="245.99999999999977" transform="matrix(-1,0,0,-1,582.000003,492.999997)" width="2" height="1.0000000000001137" style="fill: rgb(63, 61, 86);"/></g></g><g id="shape-b24a15b0-3ef6-11ed-9e96-d5ea72e0ce91"><g id="fills-b24a15b0-3ef6-11ed-9e96-d5ea72e0ce91"><rect rx="0.48819" ry="0.48819" x="286.99999999999955" y="245.99999999999977" transform="matrix(-1,0,0,-1,575.999998,493.000003)" width="2" height="1.0000000000001137" style="fill: rgb(63, 61, 86);"/></g></g><g id="shape-b24ad900-3ef6-11ed-9e96-d5ea72e0ce91"><g id="fills-b24ad900-3ef6-11ed-9e96-d5ea72e0ce91"><rect rx="0.48819" ry="0.48819" x="281.99999999999955" y="245.99999999999977" transform="matrix(-1,0,0,-1,565.999998,493.000003)" width="2" height="1.0000000000001137" style="fill: rgb(63, 61, 86);"/></g></g><g id="shape-b24b7540-3ef6-11ed-9e96-d5ea72e0ce91"><g id="fills-b24b7540-3ef6-11ed-9e96-d5ea72e0ce91"><rect rx="0.48819" ry="0.48819" x="312.99999999999955" y="248.99999999999977" transform="matrix(-1,0,0,-1,645.999998,499.000002)" width="20" height="1" style="fill: rgb(63, 61, 86);"/></g></g><g id="shape-b24c1180-3ef6-11ed-9e96-d5ea72e0ce91"><g id="fills-b24c1180-3ef6-11ed-9e96-d5ea72e0ce91"><rect rx="1" ry="1" x="290.99999999999955" y="201.99999999999977" transform="matrix(1,0,0,1,-0.000001,0.000001)" width="4" height="2" style="fill: rgb(255, 255, 255);"/></g></g><g id="shape-b24c5fa0-3ef6-11ed-9e96-d5ea72e0ce91"><g id="fills-b24c5fa0-3ef6-11ed-9e96-d5ea72e0ce91"><rect rx="1" ry="1" x="309.99999999999955" y="201.99999999999977" transform="matrix(1,0,0,1,-0.000001,0.000001)" width="4.000000000000227" height="2" style="fill: rgb(255, 255, 255);"/></g></g><g id="shape-b24cfbe0-3ef6-11ed-9e96-d5ea72e0ce91"><g id="fills-b24cfbe0-3ef6-11ed-9e96-d5ea72e0ce91"><rect rx="1" ry="1" x="315.99999999999955" y="201.99999999999977" transform="matrix(1,0,0,1,-0.000001,0.000002)" width="4" height="2" style="fill: rgb(255, 255, 255);"/></g></g><g id="shape-b24dbf30-3ef6-11ed-9e96-d5ea72e0ce91"><g id="fills-b24dbf30-3ef6-11ed-9e96-d5ea72e0ce91"><rect rx="1" ry="1" x="295.99999999999955" y="201.99999999999977" transform="matrix(1,0,0,1,0.000003,-0.000004)" width="11" height="2" style="fill: rgb(255, 255, 255);"/></g></g><g id="shape-b24e3460-3ef6-11ed-9e96-d5ea72e0ce91"><g id="fills-b24e3460-3ef6-11ed-9e96-d5ea72e0ce91"><rect rx="1" ry="1" x="321.99999999999955" y="201.99999999999977" transform="matrix(1,0,0,1,0.000003,-0.000005)" width="11" height="2" style="fill: rgb(255, 255, 255);"/></g></g><g id="shape-b24ea990-3ef6-11ed-9e96-d5ea72e0ce91"><g id="fills-b24ea990-3ef6-11ed-9e96-d5ea72e0ce91"><rect rx="1" ry="1" x="295.99999999999955" y="205.99999999999977" transform="matrix(1,0,0,1,-0.000001,0.000001)" width="3.9999999999997726" height="2" style="fill: rgb(255, 255, 255);"/></g></g><g id="shape-b24f45d0-3ef6-11ed-9e96-d5ea72e0ce91"><g id="fills-b24f45d0-3ef6-11ed-9e96-d5ea72e0ce91"><rect rx="1" ry="1" x="314.99999999999955" y="205.99999999999977" transform="matrix(1,0,0,1,-0.000001,0.000002)" width="4" height="2" style="fill: rgb(255, 255, 255);"/></g></g><g id="shape-b24fe210-3ef6-11ed-9e96-d5ea72e0ce91"><g id="fills-b24fe210-3ef6-11ed-9e96-d5ea72e0ce91"><rect rx="1" ry="1" x="320.99999999999955" y="205.99999999999977" transform="matrix(1,0,0,1,-0.000001,0.000002)" width="4" height="2" style="fill: rgb(255, 255, 255);"/></g></g><g id="shape-b250a560-3ef6-11ed-9e96-d5ea72e0ce91"><g id="fills-b250a560-3ef6-11ed-9e96-d5ea72e0ce91"><rect rx="1" ry="1" x="300.99999999999955" y="205.99999999999977" transform="matrix(1,0,0,1,0.000003,-0.000005)" width="11" height="2" style="fill: rgb(255, 255, 255);"/></g></g><g id="shape-b25141a0-3ef6-11ed-9e96-d5ea72e0ce91"><g id="fills-b25141a0-3ef6-11ed-9e96-d5ea72e0ce91"><rect rx="1" ry="1" x="325.99999999999955" y="205.99999999999977" transform="matrix(1,0,0,1,0.000003,-0.000005)" width="11" height="2" style="fill: rgb(255, 255, 255);"/></g></g><g id="shape-b25204f0-3ef6-11ed-9e96-d5ea72e0ce91"><g id="fills-b25204f0-3ef6-11ed-9e96-d5ea72e0ce91"><rect rx="1" ry="1" x="300.99999999999955" y="210.99999999999977" transform="matrix(1,0,0,1,-0.000001,0.000001)" width="4" height="2" style="fill: rgb(255, 255, 255);"/></g></g><g id="shape-b252c840-3ef6-11ed-9e96-d5ea72e0ce91"><g id="fills-b252c840-3ef6-11ed-9e96-d5ea72e0ce91"><rect rx="1" ry="1" x="318.99999999999955" y="210.99999999999977" transform="matrix(1,0,0,1,-0.000001,0.000002)" width="4" height="2" style="fill: rgb(255, 255, 255);"/></g></g><g id="shape-b2536480-3ef6-11ed-9e96-d5ea72e0ce91"><g id="fills-b2536480-3ef6-11ed-9e96-d5ea72e0ce91"><rect rx="1" ry="1" x="325.99999999999955" y="210.99999999999977" transform="matrix(1,0,0,1,-0.000001,0.000002)" width="4" height="2" style="fill: rgb(255, 255, 255);"/></g></g><g id="shape-b25400c0-3ef6-11ed-9e96-d5ea72e0ce91"><g id="fills-b25400c0-3ef6-11ed-9e96-d5ea72e0ce91"><rect rx="0.9999999999999432" ry="0.9999999999999432" x="306.99999999999955" y="209.99999999999977" transform="matrix(1,0,0,1,0.000003,-0.000005)" width="11.000000000000227" height="1.9999999999998863" style="fill: rgb(255, 255, 255);"/></g></g><g id="shape-b2549d00-3ef6-11ed-9e96-d5ea72e0ce91"><g id="fills-b2549d00-3ef6-11ed-9e96-d5ea72e0ce91"><rect rx="0.9999999999999432" ry="0.9999999999999432" x="329.99999999999955" y="209.99999999999977" transform="matrix(1,0,0,1,0.000003,-0.000005)" width="11.000000000000227" height="1.9999999999998863" style="fill: rgb(255, 255, 255);"/></g></g><g id="shape-b2553940-3ef6-11ed-9e96-d5ea72e0ce91"><g id="fills-b2553940-3ef6-11ed-9e96-d5ea72e0ce91"><rect rx="1.0000000000000568" ry="1.0000000000000568" x="305.99999999999955" y="214.99999999999977" transform="matrix(1,0,0,1,0.000001,-0.000002)" width="4" height="2.0000000000001137" style="fill: rgb(255, 255, 255);"/></g></g><g id="shape-b255d580-3ef6-11ed-9e96-d5ea72e0ce91"><g id="fills-b255d580-3ef6-11ed-9e96-d5ea72e0ce91"><rect rx="1.0000000000000568" ry="1.0000000000000568" x="325.99999999999955" y="214.99999999999977" transform="matrix(1,0,0,1,-0.000001,0.000002)" width="4" height="2.0000000000001137" style="fill: rgb(255, 255, 255);"/></g></g><g id="shape-b25623a0-3ef6-11ed-9e96-d5ea72e0ce91"><g id="fills-b25623a0-3ef6-11ed-9e96-d5ea72e0ce91"><rect rx="1.0000000000000568" ry="1.0000000000000568" x="329.99999999999955" y="214.99999999999977" transform="matrix(1,0,0,1,0.000001,-0.000002)" width="4" height="2.0000000000001137" style="fill: rgb(255, 255, 255);"/></g></g><g id="shape-b25698d0-3ef6-11ed-9e96-d5ea72e0ce91"><g id="fills-b25698d0-3ef6-11ed-9e96-d5ea72e0ce91"><rect rx="1.0000000000000568" ry="1.0000000000000568" x="311.99999999999955" y="214.99999999999977" transform="matrix(1,0,0,1,0.000003,-0.000005)" width="11" height="2.0000000000001137" style="fill: rgb(255, 255, 255);"/></g></g><g id="shape-b2575c20-3ef6-11ed-9e96-d5ea72e0ce91"><g id="fills-b2575c20-3ef6-11ed-9e96-d5ea72e0ce91"><rect rx="0.9999999999999432" ry="0.9999999999999432" x="309.99999999999955" y="229.99999999999977" transform="matrix(1,0,0,1,-0.000001,0.000001)" width="4.000000000000227" height="1.9999999999998863" style="fill: rgb(255, 255, 255);"/></g></g><g id="shape-b257f860-3ef6-11ed-9e96-d5ea72e0ce91"><g id="fills-b257f860-3ef6-11ed-9e96-d5ea72e0ce91"><rect rx="0.9999999999999432" ry="0.9999999999999432" x="315.99999999999955" y="229.99999999999977" transform="matrix(1,0,0,1,-0.000001,0.000002)" width="4" height="1.9999999999998863" style="fill: rgb(255, 255, 255);"/></g></g><g id="shape-b25894a0-3ef6-11ed-9e96-d5ea72e0ce91"><g id="fills-b25894a0-3ef6-11ed-9e96-d5ea72e0ce91"><rect rx="0.9999999999999432" ry="0.9999999999999432" x="321.99999999999955" y="229.99999999999977" transform="matrix(1,0,0,1,0.000003,-0.000005)" width="11" height="1.9999999999998863" style="fill: rgb(255, 255, 255);"/></g></g><g id="shape-b25930e0-3ef6-11ed-9e96-d5ea72e0ce91"><g id="fills-b25930e0-3ef6-11ed-9e96-d5ea72e0ce91"><rect rx="0.9999999999999432" ry="0.9999999999999432" x="290.99999999999955" y="229.99999999999977" transform="matrix(1,0,0,1,-0.000001,0.000001)" width="4" height="1.9999999999998863" style="fill: rgb(255, 255, 255);"/></g></g><g id="shape-b259cd20-3ef6-11ed-9e96-d5ea72e0ce91"><g id="fills-b259cd20-3ef6-11ed-9e96-d5ea72e0ce91"><rect rx="0.9999999999999432" ry="0.9999999999999432" x="295.99999999999955" y="229.99999999999977" transform="matrix(1,0,0,1,0.000003,-0.000004)" width="11" height="1.9999999999998863" style="fill: rgb(255, 255, 255);"/></g></g><g id="shape-b25a6960-3ef6-11ed-9e96-d5ea72e0ce91"><g id="fills-b25a6960-3ef6-11ed-9e96-d5ea72e0ce91"><rect rx="1" ry="1" x="295.99999999999955" y="226.99999999999977" transform="matrix(1,0,0,1,0.000002,-0.000003)" width="3.9999999999997726" height="2" style="fill: rgb(255, 255, 255);"/></g></g><g id="shape-b25ade90-3ef6-11ed-9e96-d5ea72e0ce91"><g id="fills-b25ade90-3ef6-11ed-9e96-d5ea72e0ce91"><rect rx="1" ry="1" x="314.99999999999955" y="226.99999999999977" transform="matrix(1,0,0,1,0.000001,-0.000002)" width="4" height="2" style="fill: rgb(255, 255, 255);"/></g></g><g id="shape-b25b7ad0-3ef6-11ed-9e96-d5ea72e0ce91"><g id="fills-b25b7ad0-3ef6-11ed-9e96-d5ea72e0ce91"><rect rx="1" ry="1" x="320.99999999999955" y="226.99999999999977" transform="matrix(1,0,0,1,0.000001,-0.000002)" width="4" height="2" style="fill: rgb(255, 255, 255);"/></g></g><g id="shape-b25bf000-3ef6-11ed-9e96-d5ea72e0ce91"><g id="fills-b25bf000-3ef6-11ed-9e96-d5ea72e0ce91"><rect rx="1" ry="1" x="300.99999999999955" y="226.99999999999977" transform="matrix(1,0,0,1,0.000003,-0.000005)" width="11" height="2" style="fill: rgb(255, 255, 255);"/></g></g><g id="shape-b25cb350-3ef6-11ed-9e96-d5ea72e0ce91"><g id="fills-b25cb350-3ef6-11ed-9e96-d5ea72e0ce91"><rect rx="0.9999999999999432" ry="0.9999999999999432" x="300.99999999999955" y="221.99999999999977" transform="matrix(1,0,0,1,0.000001,-0.000002)" width="4" height="1.9999999999998863" style="fill: rgb(255, 255, 255);"/></g></g><g id="shape-b25d2880-3ef6-11ed-9e96-d5ea72e0ce91"><g id="fills-b25d2880-3ef6-11ed-9e96-d5ea72e0ce91"><rect rx="0.9999999999999432" ry="0.9999999999999432" x="318.99999999999955" y="221.99999999999977" transform="matrix(1,0,0,1,0.000002,-0.000004)" width="4" height="1.9999999999998863" style="fill: rgb(255, 255, 255);"/></g></g><g id="shape-b25dc4c0-3ef6-11ed-9e96-d5ea72e0ce91"><g id="fills-b25dc4c0-3ef6-11ed-9e96-d5ea72e0ce91"><rect rx="0.9999999999999432" ry="0.9999999999999432" x="325.99999999999955" y="221.99999999999977" transform="matrix(1,0,0,1,-0.000001,0.000002)" width="4" height="1.9999999999998863" style="fill: rgb(255, 255, 255);"/></g></g><g id="shape-b25e39f0-3ef6-11ed-9e96-d5ea72e0ce91"><g id="fills-b25e39f0-3ef6-11ed-9e96-d5ea72e0ce91"><rect rx="0.9999999999999432" ry="0.9999999999999432" x="306.99999999999955" y="221.99999999999977" transform="matrix(1,0,0,1,0.000003,-0.000005)" width="11.000000000000227" height="1.9999999999998863" style="fill: rgb(255, 255, 255);"/></g></g><g id="shape-b25efd40-3ef6-11ed-9e96-d5ea72e0ce91"><g id="fills-b25efd40-3ef6-11ed-9e96-d5ea72e0ce91"><rect rx="0.9999999999999432" ry="0.9999999999999432" x="305.99999999999955" y="217.99999999999977" transform="matrix(1,0,0,1,-0.000001,0.000001)" width="4" height="1.9999999999998863" style="fill: rgb(255, 255, 255);"/></g></g><g id="shape-b25f9980-3ef6-11ed-9e96-d5ea72e0ce91"><g id="fills-b25f9980-3ef6-11ed-9e96-d5ea72e0ce91"><rect rx="0.9999999999999432" ry="0.9999999999999432" x="325.99999999999955" y="217.99999999999977" transform="matrix(1,0,0,1,-0.000001,0.000002)" width="4" height="1.9999999999998863" style="fill: rgb(255, 255, 255);"/></g></g><g id="shape-b2600eb0-3ef6-11ed-9e96-d5ea72e0ce91"><g id="fills-b2600eb0-3ef6-11ed-9e96-d5ea72e0ce91"><rect rx="0.9999999999999432" ry="0.9999999999999432" x="329.99999999999955" y="217.99999999999977" transform="matrix(1,0,0,1,-0.000001,0.000002)" width="4" height="1.9999999999998863" style="fill: rgb(255, 255, 255);"/></g></g><g id="shape-b26083e0-3ef6-11ed-9e96-d5ea72e0ce91"><g id="fills-b26083e0-3ef6-11ed-9e96-d5ea72e0ce91"><rect rx="0.9999999999999432" ry="0.9999999999999432" x="311.99999999999955" y="217.99999999999977" transform="matrix(1,0,0,1,0.000003,-0.000005)" width="11" height="1.9999999999998863" style="fill: rgb(255, 255, 255);"/></g></g><g id="shape-b2620a80-3ef6-11ed-9e96-d5ea72e0ce91"><g id="fills-b2620a80-3ef6-11ed-9e96-d5ea72e0ce91"><path rx="0" ry="0" d="M285.498,277L278,265.129L301.534,246.337L311.247,235.557C313.815,232.707,317.703,231.44,321.454,232.232C325.204,233.023,328.252,235.753,329.454,239.398L329.454,239.398C331.274,244.916,328.4,250.886,322.956,252.895L307.596,258.563Z" style="fill: rgb(255, 182, 182);"/></g></g><g id="shape-b2639120-3ef6-11ed-9e96-d5ea72e0ce91"><g id="fills-b2639120-3ef6-11ed-9e96-d5ea72e0ce91"><path rx="0" ry="0" d="M109,190.958L109,249L149,249L149,190.958C149.001,190.101,148.453,189.344,147.647,189.091C147.462,189.029,147.269,188.998,147.074,189L110.932,189C110.42,188.999,109.929,189.205,109.567,189.572C109.204,189.939,109,190.438,109,190.958ZZM124.61,210.902C124.632,208.52,126.537,206.601,128.88,206.601C131.223,206.601,133.129,208.52,133.15,210.902L133.15,217.636C133.138,220.025,131.23,221.955,128.88,221.955C126.531,221.955,124.622,220.025,124.61,217.636Z" style="fill: rgb(47, 46, 65);"/></g></g><g id="shape-b264f0b0-3ef6-11ed-9e96-d5ea72e0ce91"><g id="fills-b264f0b0-3ef6-11ed-9e96-d5ea72e0ce91"><path rx="0" ry="0" d="M109,246L109,251.852C109.002,252.483,109.49,252.995,110.095,253L148.905,253C149.511,252.997,150,252.484,150,251.852L150,246Z" style="fill: rgb(63, 61, 86);"/></g></g><g id="shape-b2667750-3ef6-11ed-9e96-d5ea72e0ce91"><g id="fills-b2667750-3ef6-11ed-9e96-d5ea72e0ce91"><path rx="0" ry="0" d="M44,103.081L44,208.914C44.002,211.722,46.278,213.998,49.086,214L205.914,214C208.722,213.998,210.998,211.722,211,208.914L211,103.081C210.993,100.275,208.719,98.004,205.914,98L49.086,98C46.281,98.004,44.007,100.275,44,103.081ZZ" style="fill: rgb(63, 61, 86);"/></g></g><g id="shape-b267d6e0-3ef6-11ed-9e96-d5ea72e0ce91"><g id="fills-b267d6e0-3ef6-11ed-9e96-d5ea72e0ce91"><path rx="0" ry="0" d="M48,103.708L48,206.298C48.003,207.789,49.221,208.997,50.724,209L205.276,209C206.779,208.997,207.997,207.789,208,206.298L208,103.708C208,102.215,206.781,101.003,205.276,101L50.724,101C49.219,101.003,48,102.215,48,103.708ZZ" style="fill: rgb(240, 247, 238); fill-opacity: 1;"/></g></g><g id="shape-b2695d80-3ef6-11ed-9e96-d5ea72e0ce91"><g id="fills-b2695d80-3ef6-11ed-9e96-d5ea72e0ce91"><path rx="0" ry="0" d="M77.379,254.319C77.697,254.752,78.179,255.003,78.689,255L170.316,255C170.824,254.999,171.304,254.75,171.623,254.322C171.943,253.894,172.068,253.332,171.964,252.793L170.542,245.453C170.422,244.845,170.027,244.344,169.492,244.123C169.301,244.041,169.098,244,168.894,244L80.105,244C79.901,244,79.698,244.041,79.507,244.123C78.972,244.344,78.577,244.845,78.457,245.453L77.035,252.793C76.932,253.332,77.059,253.893,77.379,254.319ZZ" style="fill: rgb(47, 46, 65);"/></g></g><g id="shape-b26a47e0-3ef6-11ed-9e96-d5ea72e0ce91"><g id="fills-b26a47e0-3ef6-11ed-9e96-d5ea72e0ce91"><path rx="0" ry="0" d="M201.437,116L56.563,116C56.25,115.994,56,115.772,56,115.5C56,115.228,56.25,115.006,56.563,115L201.437,115C201.75,115.006,202,115.228,202,115.5C202,115.772,201.75,115.994,201.437,116ZZ" style="fill: rgb(63, 61, 86);"/></g></g><g id="shape-b26ae420-3ef6-11ed-9e96-d5ea72e0ce91"><g id="fills-b26ae420-3ef6-11ed-9e96-d5ea72e0ce91"><ellipse rx="3.5" ry="3.5" cx="65.49999999999955" cy="108.49999999999977" transform="matrix(1,0,0,1,0,0)" style="fill: rgb(63, 61, 86);"/></g></g><g id="shape-b26ba770-3ef6-11ed-9e96-d5ea72e0ce91"><g id="fills-b26ba770-3ef6-11ed-9e96-d5ea72e0ce91"><ellipse rx="3.5" ry="3.5" cx="77.49999999999955" cy="108.49999999999977" transform="matrix(1,0,0,1,0,0)" style="fill: rgb(63, 61, 86);"/></g></g><g id="shape-b26c6ac0-3ef6-11ed-9e96-d5ea72e0ce91"><g id="fills-b26c6ac0-3ef6-11ed-9e96-d5ea72e0ce91"><ellipse rx="3.5" ry="3.5" cx="88.49999999999955" cy="108.49999999999977" transform="matrix(1,0,0,1,0,0)" style="fill: rgb(63, 61, 86);"/></g></g><g id="shape-b26d0700-3ef6-11ed-9e96-d5ea72e0ce91"><g id="fills-b26d0700-3ef6-11ed-9e96-d5ea72e0ce91"><path rx="0" ry="0" d="M193.35,106L184.644,106C184.286,106.006,184,106.228,184,106.5C184,106.772,184.286,106.994,184.644,107L193.35,107C193.711,106.996,194,106.773,194,106.5C194,106.227,193.711,106.004,193.35,106ZZ" style="fill: rgb(63, 61, 86);"/></g></g><g id="shape-b26e1870-3ef6-11ed-9e96-d5ea72e0ce91"><g id="fills-b26e1870-3ef6-11ed-9e96-d5ea72e0ce91"><path rx="0" ry="0" d="M193.349,108L184.644,108C184.286,108.006,184,108.228,184,108.5C184,108.772,184.286,108.994,184.644,109L193.349,109C193.71,108.997,194,108.774,194,108.5C194,108.226,193.71,108.003,193.349,108ZZ" style="fill: rgb(63, 61, 86);"/></g></g><g id="shape-b26f02d0-3ef6-11ed-9e96-d5ea72e0ce91"><g id="fills-b26f02d0-3ef6-11ed-9e96-d5ea72e0ce91"><path rx="0" ry="0" d="M193.35,110L184.644,110C184.286,110.006,184,110.228,184,110.5C184,110.772,184.286,110.994,184.644,111L193.35,111C193.711,110.996,194,110.773,194,110.5C194,110.227,193.711,110.004,193.35,110ZZ" style="fill: rgb(63, 61, 86);"/></g></g><g id="shape-b27125b0-3ef6-11ed-9e96-d5ea72e0ce91"><g id="fills-b27125b0-3ef6-11ed-9e96-d5ea72e0ce91"><path rx="0" ry="0" d="M393.084,250.498C393.583,252.018,394.96,253.028,396.494,252.999L411.103,252.606C412.65,252.574,413.993,251.479,414.401,249.916L416.469,226.764C417.202,227.112,418.001,227.284,418.806,227.267C421.747,227.189,424.072,224.629,423.998,221.549C423.924,218.468,421.48,216.033,418.538,216.11C418.217,216.109,417.896,216.144,417.581,216.215C416.889,215.431,415.913,214.989,414.893,215L392.421,215.608C392.235,215.615,392.049,215.639,391.867,215.68C390.87,215.875,390.002,216.512,389.486,217.427C388.971,218.342,388.859,219.445,389.179,220.453ZM416.893,225.192L418.364,219.675C418.531,219.037,418.535,218.365,418.375,217.726C418.446,217.725,418.509,217.69,418.581,217.69C420.681,217.644,422.42,219.387,422.469,221.587C422.519,223.786,420.859,225.612,418.759,225.67C418.107,225.691,417.462,225.526,416.893,225.192ZZ" style="fill: rgb(47, 46, 65);"/></g></g><g id="shape-b2725e30-3ef6-11ed-9e96-d5ea72e0ce91"><g id="fills-b2725e30-3ef6-11ed-9e96-d5ea72e0ce91"><path rx="0" ry="0" d="M391,215.648C391.478,218.377,396.851,220.296,403.311,219.962C409.252,219.689,414.11,217.605,415,215.136C414.671,215.039,414.328,214.993,413.985,215.001L391.553,215.579C391.367,215.586,391.182,215.609,391,215.648ZZ" style="fill: rgb(63, 61, 86);"/></g></g><g id="shape-b2734890-3ef6-11ed-9e96-d5ea72e0ce91"><g id="fills-b2734890-3ef6-11ed-9e96-d5ea72e0ce91"><path rx="0" ry="0" d="M405.488,236.991C405.518,236.983,405.547,236.97,405.488,236.991ZL408.87,234.785C408.951,234.732,409,234.641,409,234.544C409,234.447,408.951,234.356,408.87,234.303L405.444,232.048C405.359,231.991,405.249,231.984,405.158,232.031C405.066,232.077,405.006,232.169,405,232.272C404.995,232.375,405.044,232.473,405.13,232.529L408.19,234.543L405.26,236.471C405.143,236.548,405.099,236.699,405.155,236.828C405.211,236.957,405.352,237.026,405.488,236.991ZZ" style="fill: rgb(108, 99, 255);"/></g></g><g id="shape-b274cf30-3ef6-11ed-9e96-d5ea72e0ce91"><g id="fills-b274cf30-3ef6-11ed-9e96-d5ea72e0ce91"><path rx="0" ry="0" d="M399.783,236.991C399.897,236.962,399.981,236.867,399.997,236.751C400.013,236.635,399.957,236.521,399.856,236.462L396.81,234.711L399.754,232.519C399.836,232.457,399.88,232.357,399.868,232.255C399.856,232.152,399.791,232.064,399.697,232.024C399.602,231.983,399.494,231.995,399.412,232.057L396.116,234.512C396.038,234.569,395.995,234.663,396,234.76C396.006,234.857,396.06,234.944,396.144,234.992L399.57,236.962C399.635,236.999,399.711,237.01,399.783,236.991ZZ" style="fill: rgb(108, 99, 255);"/></g></g><g id="shape-b2759280-3ef6-11ed-9e96-d5ea72e0ce91"><g id="fills-b2759280-3ef6-11ed-9e96-d5ea72e0ce91"><path rx="0" ry="0" d="M404.794,236.993C404.82,236.987,404.846,236.977,404.794,236.993ZC404.931,236.931,404.975,236.877,404.992,236.814C405.009,236.752,404.998,236.686,404.96,236.631L400.506,230.116C400.428,230.002,400.26,229.966,400.131,230.036C400.002,230.105,399.962,230.255,400.04,230.369L404.494,236.884C404.556,236.975,404.678,237.019,404.794,236.993ZZ" style="fill: rgb(108, 99, 255);"/></g></g><g id="shape-b27655d0-3ef6-11ed-9e96-d5ea72e0ce91"><g id="fills-b27655d0-3ef6-11ed-9e96-d5ea72e0ce91"><rect rx="3.0000000000001137" ry="3.0000000000001137" x="117.99999999999955" y="146.99999999999977" transform="matrix(1,0,0,1,0.000002,-0.000002)" width="28.999999999999773" height="6.000000000000227" style="fill: rgb(33, 118, 255); fill-opacity: 1;"/></g></g><g id="shape-b276cb00-3ef6-11ed-9e96-d5ea72e0ce91"><g id="fills-b276cb00-3ef6-11ed-9e96-d5ea72e0ce91"><rect rx="3" ry="3" x="103.99999999999955" y="159.99999999999977" transform="matrix(1,0,0,1,0,0)" width="57" height="6" style="fill: rgb(230, 230, 230);"/></g></g><g id="shape-b2774030-3ef6-11ed-9e96-d5ea72e0ce91"><g id="fills-b2774030-3ef6-11ed-9e96-d5ea72e0ce91"><rect rx="3" ry="3" x="103.99999999999955" y="171.99999999999977" transform="matrix(1,0,0,1,0,0)" width="57" height="6" style="fill: rgb(230, 230, 230);"/></g></g><g id="shape-b279d840-3ef6-11ed-9e96-d5ea72e0ce91"><g id="fills-b279d840-3ef6-11ed-9e96-d5ea72e0ce91"><path rx="0" ry="0" d="M165,213.212L165.123,213.597L165.129,213.61L168.82,224.755L173.066,237.599L181.055,261.736L181.132,265.485L181.132,265.498L181.726,295.66L180.08,299.749L181.932,306.452C181.932,306.452,181.081,296.319,176.512,302.138C173.924,305.445,170.898,308.829,168.414,312.002C172.034,313.457,175.712,314.773,179.448,315.95C180.255,316.206,181.068,316.45,181.881,316.693C182.055,316.745,182.229,316.796,182.403,316.847C194.788,320.485,207.592,322.529,220.501,322.93C221.172,322.949,221.83,322.962,222.469,322.974C222.695,322.981,222.914,322.987,223.134,322.987C223.857,322.994,224.573,323,225.296,323C226.754,323,228.206,322.979,229.651,322.936C240.35,322.636,250.986,321.208,261.38,318.674C261.309,314.412,261.115,309.432,260.838,304.112C260.709,301.504,257.811,298.677,257.637,295.947C257.515,293.896,260.115,291.967,259.98,289.884C259.102,277.059,258.005,281.982,257.192,272.901C257.108,272.01,257.031,271.157,256.96,270.343C256.437,264.511,256.076,260.864,256.076,260.864L259.547,239.131L265,205.009L264.581,204.323L264.109,204.092L235.349,189.954L233.788,185.98C232.857,183.638,230.586,182.093,228.051,182.077L209.105,182C207.111,181.991,205.234,182.939,204.066,184.544L198.936,191.601Z" style="fill: rgb(63, 61, 86);"/></g></g><g id="shape-b27bad00-3ef6-11ed-9e96-d5ea72e0ce91"><g id="fills-b27bad00-3ef6-11ed-9e96-d5ea72e0ce91"><path rx="0" ry="0" d="M185,256.11L180.733,265.163L177.82,271.346L172.809,297.36L170.3,300L168.15,290.654L145.653,295.606C144.915,291.541,145.456,295.744,145,291.284C145.128,291.157,145.263,291.03,145.398,290.903C145.757,290.572,146.059,290.26,146.052,289.961C145.796,274.578,146.566,248.399,152.995,232.539C154.002,229.95,155.329,227.494,156.947,225.229C157.076,225.058,157.198,224.886,157.32,224.714C160.284,220.598,162.158,216.546,164.814,213.664L164.814,213.657C164.83,213.644,164.846,213.629,164.859,213.613C164.868,213.608,164.877,213.601,164.884,213.594L183.133,204L183.916,225.808L184.474,241.484Z" style="fill: rgb(63, 61, 86);"/></g></g><g id="shape-b27d33a0-3ef6-11ed-9e96-d5ea72e0ce91"><g id="fills-b27d33a0-3ef6-11ed-9e96-d5ea72e0ce91"><path rx="0" ry="0" d="M251,259.633L256.344,271.183L258.209,275.206L263.232,301.778L265.739,304.468L267.899,294.923L268.914,294.712L287.219,290.883L292.554,308C295.033,303.827,294.264,298.469,290.715,295.179C290.35,294.846,290.047,294.521,290.055,294.215C290.359,275.732,289.24,241.982,279.133,228.092C275.924,223.683,273.998,219.293,271.196,216.225C271.187,216.217,271.187,216.208,271.178,216.208L264.36,204.929L263.943,204.237L263.475,204Z" style="fill: rgb(63, 61, 86);"/></g></g><g id="shape-b27dcfe0-3ef6-11ed-9e96-d5ea72e0ce91"><g id="fills-b27dcfe0-3ef6-11ed-9e96-d5ea72e0ce91"><ellipse rx="25.499999999999886" ry="25.000000000000114" cx="219.49999999999943" cy="150.9999999999999" transform="matrix(1,0,0,1,-0.000001,0.000001)" style="fill: rgb(255, 182, 182);"/></g></g><g id="shape-b28019d0-3ef6-11ed-9e96-d5ea72e0ce91"><g id="fills-b28019d0-3ef6-11ed-9e96-d5ea72e0ce91"><path rx="0" ry="0" d="M252.487,134.378C252.092,133.961,251.542,133.72,250.963,133.712L251.343,132.67C251.595,132.002,251.463,131.251,250.999,130.706C250.534,130.161,249.809,129.905,249.1,130.038L247.718,130.301L247.848,129.388C247.95,128.696,247.675,128.003,247.125,127.564C246.575,127.124,245.832,127.005,245.17,127.248C244.57,127.482,243.895,127.435,243.335,127.12C242.772,126.814,242.375,126.28,242.247,125.658L241.766,123.362L241.715,123.238C239.371,119.374,234.863,116.562,229.347,115.532C224.436,114.608,219.402,115.078,214.548,115.521C212.623,115.7,210.448,115.901,208.636,116.999C207.095,117.94,205.793,119.822,206.059,121.721C201.274,120.27,196.143,123.166,193.6,126.817C190.587,131.163,190.094,136.607,190.015,140.864C189.8,150.934,191.901,159.172,196.245,165.356C196.562,165.804,196.641,166.739,197.27,167.053L197.139,166.845C197.842,167.193,198.555,167.753,198.289,168.352C197.525,170.077,202.604,173.891,206.184,175.151C212.713,177.453,221.395,177.257,227.5,176.428L227.715,175C229.919,174.703,231.47,174.137,231.906,173.253C232.677,172.603,233.333,172.02,233.905,171.483L233.911,171.477C233.922,171.466,233.945,171.449,233.956,171.438C236.714,168.822,237.354,167.333,237.643,165.064C237.921,162.841,237.428,160.584,236.924,158.551C247.537,160.175,232.744,147.372,242.633,144.896C242.746,144.862,242.861,144.834,242.978,144.812C243.267,144.745,243.556,144.678,243.833,144.599C245.171,144.24,246.452,143.699,247.639,142.992C250.403,141.329,251.314,139.122,252.742,136.635C253.164,135.909,253.061,134.995,252.487,134.378ZZ" style="fill: rgb(47, 46, 65);"/></g></g><g id="shape-b2880910-3ef6-11ed-9e96-d5ea72e0ce91"><g id="fills-b2880910-3ef6-11ed-9e96-d5ea72e0ce91"><path rx="0" ry="0" d="M307,260.342C306.994,261.331,306.983,262.716,306.938,264.43C306.932,264.667,306.926,264.91,306.921,265.159C306.847,268.308,306.774,270.949,306.655,273.883C306.649,274.087,306.644,274.285,306.632,274.488C306.474,278.582,306.225,283.348,305.795,290.896C304.997,304.839,303.605,292.813,302.208,297.704C302.14,297.947,302.067,298.235,301.999,298.574C301.787,299.805,301.43,301.007,300.935,302.153C300.194,302.595,299.43,303.019,298.678,303.443C296.533,304.636,294.355,305.783,292.16,306.875C290.927,307.485,289.688,308.085,288.443,308.661C288.245,308.752,288.053,308.842,287.86,308.927C281.487,311.873,274.918,314.378,268.2,316.424C266.888,316.82,265.581,317.205,264.257,317.561C262.876,317.945,261.496,318.307,260.098,318.646C249.703,321.197,239.065,322.635,228.365,322.938C226.922,322.983,225.468,323,224.008,323C223.284,323,222.571,322.994,221.847,322.989C221.627,322.989,221.406,322.983,221.185,322.977C220.546,322.96,219.884,322.949,219.216,322.932C206.305,322.53,193.499,320.472,181.112,316.809L180.586,316.656C179.772,316.407,178.963,316.164,178.154,315.904C174.419,314.722,170.74,313.399,167.116,311.935C164.349,310.821,161.614,309.626,158.912,308.35C158.887,308.344,158.864,308.332,158.844,308.316C158.278,308.056,157.707,307.785,157.141,307.508C157.068,307.468,156.988,307.429,156.909,307.389C154.799,306.36,152.711,305.282,150.646,304.155C148.909,300.169,146.465,299.406,144.949,295.9C144.508,294.859,144.189,293.77,143.999,292.655C143.999,292.643,143.993,292.632,143.993,292.615C144.151,294.718,143.32,288.883,143.987,292.592C143.982,292.525,143.976,292.451,143.97,292.366C143.953,292.163,143.931,291.914,143.897,291.603C141.956,272.668,142.081,251.013,141.238,233.168C141.181,232.015,141.123,230.91,141.062,229.855C141.045,229.504,141.023,229.16,141,228.82C141.04,228.719,141.085,228.611,141.136,228.509C141.147,228.48,141.16,228.452,141.175,228.425C141.192,228.389,141.211,228.355,141.232,228.323C141.243,228.306,141.26,228.283,141.272,228.266C141.28,228.247,141.289,228.228,141.3,228.21C141.351,228.131,141.407,228.046,141.47,227.967C141.498,227.933,141.521,227.904,141.549,227.876C141.568,227.847,141.591,227.821,141.617,227.797C141.634,227.77,141.655,227.745,141.679,227.723C141.702,227.701,141.724,227.673,141.752,227.644C141.765,227.627,141.78,227.611,141.798,227.599C141.842,227.548,141.892,227.5,141.945,227.458C142.147,227.272,142.362,227.102,142.59,226.949C142.669,226.898,142.754,226.847,142.833,226.791C143.403,226.45,144.004,226.162,144.627,225.931C144.842,225.852,145.057,225.778,145.288,225.699C145.373,225.677,145.453,225.648,145.537,225.62C145.662,225.581,145.786,225.541,145.916,225.513C146.561,225.321,147.257,225.157,148.01,225.004C148.1,224.987,148.196,224.97,148.293,224.947C148.428,224.919,148.57,224.896,148.711,224.874C148.904,224.84,149.102,224.806,149.3,224.772C150.98,224.506,152.887,224.308,154.991,224.178C155.189,224.167,155.387,224.156,155.585,224.144C155.817,224.133,156.049,224.122,156.287,224.111C156.485,224.099,156.689,224.094,156.892,224.088C157.09,224.077,157.294,224.071,157.503,224.065C158.075,224.048,158.663,224.031,159.263,224.02C160.971,223.986,162.77,223.997,164.66,224.037C165.537,224.06,166.431,224.082,167.348,224.122C167.41,224.122,167.466,224.128,167.523,224.128C168.321,224.156,169.124,224.19,169.95,224.235C170.527,224.263,171.11,224.291,171.693,224.325C172.241,224.359,172.796,224.393,173.356,224.433C173.791,224.455,174.227,224.489,174.668,224.518C175.042,224.546,175.415,224.574,175.789,224.597L176.298,224.631C176.575,224.653,176.852,224.67,177.135,224.699C177.757,224.749,178.38,224.8,179.013,224.851C179.641,224.908,180.281,224.964,180.92,225.021C181.559,225.077,182.204,225.14,182.849,225.202C182.917,225.207,182.979,225.213,183.042,225.219C183.63,225.281,184.218,225.337,184.813,225.4C184.948,225.411,185.09,225.422,185.226,225.439C185.792,225.496,186.369,225.563,186.941,225.623C187.116,225.642,187.291,225.661,187.467,225.68C187.915,225.729,188.356,225.771,188.807,225.824C189.401,225.892,190.006,225.954,190.595,226.033C191.053,226.084,191.511,226.135,191.969,226.191C192.688,226.276,193.418,226.367,194.148,226.463C194.425,226.497,194.702,226.53,194.979,226.57C197.061,226.83,199.166,227.119,201.304,227.418C204.546,227.876,207.839,228.374,211.154,228.911C214.475,229.448,217.815,230.015,221.174,230.613C222.023,230.765,222.871,230.918,223.726,231.076C224.11,231.15,224.495,231.223,224.88,231.297C225.536,231.416,226.192,231.54,226.849,231.664C227.505,231.789,228.161,231.913,228.817,232.043C229.598,232.196,230.385,232.348,231.165,232.501C236.308,233.519,241.423,234.604,246.413,235.741C247.233,235.927,248.053,236.12,248.868,236.306C250.497,236.685,252.112,237.07,253.711,237.46C254.152,237.562,254.588,237.669,255.023,237.776C256.11,238.048,257.196,238.319,258.265,238.596L258.452,238.647C259.238,238.839,260.008,239.037,260.777,239.241C262.593,239.716,264.379,240.196,266.135,240.683C267.3,241.005,268.453,241.331,269.592,241.661C271.295,242.153,272.964,242.65,274.587,243.153C274.989,243.278,275.391,243.402,275.787,243.521C276.975,243.888,278.146,244.262,279.283,244.635C280.189,244.929,281.071,245.228,281.942,245.528C282.814,245.828,283.668,246.127,284.505,246.427C285.043,246.619,285.575,246.823,286.106,247.015C286.87,247.298,287.623,247.581,288.358,247.863C288.584,247.948,288.805,248.038,289.026,248.123C289.167,248.185,289.303,248.236,289.439,248.293C289.705,248.4,289.976,248.502,290.236,248.61C290.502,248.711,290.763,248.819,291.023,248.932C291.277,249.034,291.538,249.141,291.787,249.248C292.041,249.35,292.29,249.458,292.539,249.571C292.748,249.656,292.952,249.746,293.15,249.836C293.552,250.012,293.953,250.187,294.344,250.368C294.536,250.458,294.729,250.543,294.921,250.634L295.362,250.837C295.424,250.871,295.487,250.899,295.549,250.928C295.69,250.996,295.837,251.069,295.979,251.137C296.307,251.29,296.63,251.454,296.946,251.606C297.371,251.821,297.784,252.036,298.18,252.245C298.581,252.46,298.972,252.675,299.345,252.884C299.407,252.918,299.464,252.952,299.526,252.986C299.611,253.031,299.696,253.082,299.781,253.127C300.069,253.291,300.347,253.461,300.624,253.625C301.167,253.958,301.682,254.286,302.163,254.614C302.27,254.688,302.372,254.761,302.48,254.829C302.836,255.083,303.175,255.332,303.492,255.587C303.492,255.592,303.492,255.592,303.498,255.592C303.605,255.671,303.707,255.756,303.809,255.835C303.894,255.915,303.984,255.982,304.069,256.062C304.364,256.316,304.635,256.559,304.884,256.808C304.967,256.885,305.047,256.966,305.122,257.051C305.155,257.078,305.185,257.109,305.212,257.141C305.325,257.255,305.427,257.368,305.523,257.481C305.538,257.496,305.552,257.513,305.563,257.532C305.699,257.69,305.823,257.848,305.942,258.007C305.999,258.086,306.061,258.165,306.112,258.244C306.18,258.34,306.247,258.442,306.304,258.538C306.355,258.617,306.4,258.702,306.446,258.781C306.566,258.985,306.668,259.199,306.751,259.42C306.815,259.57,306.866,259.725,306.904,259.884C306.947,260.034,306.979,260.187,307,260.342ZZ" style="fill: rgb(47, 46, 65);"/></g></g><g id="shape-b28d6040-3ef6-11ed-9e96-d5ea72e0ce91"><g id="fills-b28d6040-3ef6-11ed-9e96-d5ea72e0ce91"><path opacity="0.2" rx="0" ry="0" d="M307,260.385C306.994,261.376,306.983,262.763,306.938,264.478C306.932,264.716,306.921,264.96,306.915,265.209C306.859,267.615,306.774,270.587,306.655,273.944C306.649,274.148,306.644,274.346,306.632,274.55C306.474,278.649,306.225,283.422,305.795,290.98C304.997,304.941,303.606,292.899,302.208,297.796C298.327,295.407,294.073,292.905,289.524,290.334C288.704,289.87,287.876,289.404,287.041,288.936C277.943,283.858,267.783,278.536,257.175,273.265C256.756,273.055,256.332,272.846,255.914,272.642C231.615,260.623,205.093,248.932,183.606,241.13C179.459,239.624,175.499,238.266,171.776,237.071C163.935,234.563,157.158,232.808,151.941,232.049C146.51,231.257,142.759,231.54,141.243,233.176C141.187,232.021,141.128,230.915,141.068,229.858C141.045,229.507,141.023,229.162,141,228.822C141.035,228.729,141.08,228.64,141.124,228.55C141.13,228.537,141.135,228.524,141.141,228.511C141.152,228.482,141.166,228.453,141.181,228.426C141.198,228.391,141.217,228.357,141.238,228.324C141.256,228.284,141.279,228.246,141.306,228.211C141.356,228.132,141.413,228.047,141.475,227.967C141.521,227.908,141.57,227.851,141.622,227.798C141.64,227.77,141.661,227.746,141.685,227.724C141.707,227.701,141.73,227.673,141.758,227.645C141.77,227.627,141.786,227.612,141.803,227.599C141.848,227.548,141.897,227.501,141.95,227.458C142.152,227.272,142.368,227.102,142.595,226.948C142.675,226.897,142.759,226.846,142.839,226.79C143.409,226.449,144.009,226.16,144.632,225.929C144.847,225.85,145.062,225.776,145.294,225.697C145.379,225.675,145.458,225.646,145.543,225.618C145.667,225.578,145.792,225.539,145.922,225.51C146.567,225.318,147.263,225.154,148.015,225.001C148.241,224.956,148.479,224.91,148.717,224.871C148.909,224.837,149.107,224.803,149.305,224.769C150.985,224.503,152.892,224.304,154.996,224.174C155.194,224.163,155.392,224.152,155.59,224.14C155.822,224.129,156.054,224.118,156.292,224.106C156.49,224.095,156.694,224.089,156.897,224.084C157.095,224.072,157.299,224.067,157.508,224.061C158.08,224.044,158.668,224.027,159.268,224.016C160.976,223.987,162.775,223.999,164.665,224.038C165.542,224.055,166.436,224.084,167.352,224.123C167.409,224.123,167.471,224.129,167.528,224.129C168.325,224.152,169.134,224.191,169.955,224.231C170.532,224.259,171.114,224.287,171.697,224.321C172.246,224.355,172.8,224.389,173.36,224.429C173.796,224.452,174.232,224.486,174.673,224.514C175.046,224.542,175.42,224.571,175.793,224.593C176.24,224.627,176.687,224.661,177.14,224.695C177.762,224.746,178.384,224.797,179.018,224.848C179.646,224.905,180.285,224.961,180.924,225.018C181.564,225.074,182.209,225.137,182.854,225.199C182.921,225.205,182.984,225.21,183.046,225.216C183.634,225.278,184.223,225.335,184.817,225.397C188.109,225.731,191.498,226.122,194.983,226.569C197.065,226.835,199.173,227.12,201.308,227.424C204.55,227.883,207.842,228.381,211.158,228.913C214.479,229.451,217.818,230.019,221.177,230.617C222.026,230.77,222.874,230.923,223.728,231.081C224.769,231.274,225.81,231.47,226.851,231.67C227.508,231.795,228.164,231.919,228.82,232.049C229.601,232.202,230.387,232.355,231.168,232.508C236.311,233.527,241.425,234.614,246.415,235.752C247.235,235.939,248.055,236.131,248.87,236.318C250.499,236.697,252.114,237.082,253.713,237.473C254.154,237.581,254.59,237.688,255.025,237.796C256.117,238.068,257.198,238.339,258.267,238.611L258.267,238.617C258.329,238.628,258.391,238.645,258.454,238.662C259.234,238.86,260.009,239.058,260.779,239.262C262.595,239.738,264.381,240.217,266.136,240.7C267.302,241.028,268.456,241.351,269.593,241.68C271.296,242.178,272.965,242.676,274.589,243.174C274.99,243.299,275.392,243.423,275.788,243.542C276.976,243.916,278.141,244.288,279.284,244.657C280.189,244.952,281.072,245.252,281.943,245.552C282.815,245.852,283.669,246.152,284.506,246.452C285.049,246.645,285.581,246.843,286.107,247.035C286.877,247.318,287.623,247.601,288.359,247.89C288.585,247.975,288.806,248.066,289.026,248.151C289.439,248.309,289.841,248.473,290.237,248.637C290.503,248.739,290.763,248.847,291.023,248.96C291.278,249.062,291.538,249.17,291.787,249.277C292.042,249.379,292.291,249.487,292.54,249.6C292.749,249.685,292.953,249.775,293.151,249.866C293.552,250.042,293.954,250.217,294.344,250.398C294.537,250.489,294.729,250.574,294.921,250.664L295.363,250.868C295.425,250.902,295.487,250.93,295.549,250.959C296.03,251.185,296.494,251.412,296.947,251.638C297.371,251.853,297.784,252.068,298.18,252.278C298.65,252.527,299.097,252.77,299.527,253.019C299.611,253.065,299.696,253.116,299.781,253.161C300.07,253.325,300.347,253.495,300.624,253.659C301.167,253.993,301.682,254.322,302.163,254.65C302.638,254.978,303.079,255.301,303.492,255.624C303.492,255.629,303.492,255.629,303.498,255.629C303.696,255.788,303.888,255.946,304.069,256.099C304.364,256.354,304.635,256.597,304.884,256.847C304.968,256.923,305.047,257.005,305.122,257.09C305.155,257.117,305.185,257.148,305.212,257.181C305.331,257.311,305.45,257.441,305.563,257.571C305.699,257.73,305.823,257.888,305.942,258.047C305.999,258.126,306.061,258.205,306.112,258.285C306.18,258.381,306.248,258.483,306.304,258.579C306.355,258.658,306.4,258.743,306.446,258.822C306.566,259.027,306.668,259.241,306.751,259.462C306.813,259.613,306.864,259.768,306.904,259.926C306.947,260.077,306.979,260.23,307,260.385ZZ"/></g></g></g></svg>