<svg xmlns:xlink="http://www.w3.org/1999/xlink" width="588" xmlns="http://www.w3.org/2000/svg" height="323" id="screenshot-e0f6d6a0-3efb-11ed-9e96-d5ea72e0ce91" viewBox="-0 0 588 323" style="-webkit-print-color-adjust: exact;" fill="none" version="1.1"><g id="shape-e0f6d6a0-3efb-11ed-9e96-d5ea72e0ce91" width="878.63037" height="483" xmlns:xlink="http://www.w3.org/1999/xlink" rx="0" ry="0" style="fill: rgb(0, 0, 0);"><g id="shape-e0f96eb0-3efb-11ed-9e96-d5ea72e0ce91"><g id="fills-e0f96eb0-3efb-11ed-9e96-d5ea72e0ce91"><path rx="0" ry="0" d="M89.657,276.362C76.678,285.993,73,302.938,73,302.938C73,302.938,90.364,304.268,103.343,294.638C116.322,285.007,120,268.062,120,268.062C120,268.062,102.636,266.732,89.657,276.362ZZ" style="fill: rgb(241, 241, 241);"/></g></g><g id="shape-e0fb1c60-3efb-11ed-9e96-d5ea72e0ce91"><g id="fills-e0fb1c60-3efb-11ed-9e96-d5ea72e0ce91"><path rx="0" ry="0" d="M95.034,280.404C88.815,295.316,73.239,303,73.239,303C73.239,303,67.747,286.508,73.966,271.596C80.185,256.684,95.761,249,95.761,249C95.761,249,101.253,265.492,95.034,280.404ZZ" style="fill: rgb(241, 241, 241);"/></g></g><g id="shape-e0fcf120-3efb-11ed-9e96-d5ea72e0ce91"><g id="fills-e0fcf120-3efb-11ed-9e96-d5ea72e0ce91"><path rx="0" ry="0" d="M471,237L471,237ZC469.621,227.62,469.256,218.116,469.913,208.656L471,193L471,193C465.011,205.03,466.365,220.863,471,237ZZ" style="fill: rgb(202, 202, 202);"/></g></g><g id="shape-e0fec5e0-3efb-11ed-9e96-d5ea72e0ce91"><g id="fills-e0fec5e0-3efb-11ed-9e96-d5ea72e0ce91"><path rx="0" ry="0" d="M476,240L476,240ZC475.31,234.443,475.128,228.839,475.457,223.251L476,214L476,214C473.006,221.108,473.682,230.464,476,240ZZ" style="fill: rgb(202, 202, 202);"/></g></g><g id="shape-e1024850-3efb-11ed-9e96-d5ea72e0ce91"><g id="fills-e1024850-3efb-11ed-9e96-d5ea72e0ce91"><path rx="0" ry="0" d="M496,251.559L496,256.755C495.996,257.614,495.295,258.309,494.43,258.314L491.814,258.314C491.675,258.313,491.542,258.368,491.443,258.465C491.345,258.563,491.29,258.695,491.291,258.833L491.291,301.441C491.286,302.3,490.586,302.996,489.721,303L457.802,303C456.936,302.999,456.233,302.302,456.233,301.441L456.233,258.833C456.232,258.547,455.998,258.315,455.709,258.314L452.57,258.314C451.703,258.313,451.001,257.616,451,256.755L451,251.559C450.999,251.145,451.165,250.748,451.459,250.456C451.754,250.163,452.153,249.999,452.57,250L494.43,250C495.296,250.003,495.997,250.699,496,251.559ZZ" style="fill: rgb(242, 242, 242);"/></g></g><g id="shape-e10332b0-3efb-11ed-9e96-d5ea72e0ce91"><g id="fills-e10332b0-3efb-11ed-9e96-d5ea72e0ce91"><rect rx="0" ry="0" x="456.9999999999999" y="259" transform="matrix(1,0,0,1,0.000002,-0.000003)" width="34.99999999999977" height="1.9999999999997728" style="fill: rgb(230, 230, 230);"/></g></g><g id="shape-e1041d10-3efb-11ed-9e96-d5ea72e0ce91"><g id="fills-e1041d10-3efb-11ed-9e96-d5ea72e0ce91"><path rx="0" ry="0" d="M491,282.262C479.46,287.219,467.795,287.273,456,282.262L456,270.969C467.355,267.01,479.645,267.01,491,270.969Z" style="fill: rgb(230, 230, 230);"/></g></g><g id="shape-e1050770-3efb-11ed-9e96-d5ea72e0ce91"><g id="fills-e1050770-3efb-11ed-9e96-d5ea72e0ce91"><ellipse rx="47.5" ry="47.5" cx="295.4999999999998" cy="66.5" transform="matrix(1,0,0,1,0.000001,-0.000004)" style="fill: rgb(254, 184, 184);"/></g></g><g id="shape-e1079f80-3efb-11ed-9e96-d5ea72e0ce91"><g id="fills-e1079f80-3efb-11ed-9e96-d5ea72e0ce91"><path rx="0" ry="0" d="M339.38,25.625C332.337,14.13,321.312,5.66,308.428,1.845L302.645,6.087L302.645,0.579C299.55,0.103,296.419,-0.08,293.29,0.032L288.301,4.569L288.301,0.409C273.366,2.274,259.887,10.332,251.127,22.632C240.292,38.332,238.463,60.174,249.12,76C252.045,66.963,255.596,58.485,258.523,49.449C260.822,49.764,263.152,49.775,265.455,49.483L269.014,41.135L270.008,49.129C281.041,48.164,297.404,46.042,307.863,44.099L306.846,37.966L312.931,43.062C316.135,42.321,318.037,41.648,317.88,41.134C325.659,53.738,335.178,61.788,342.956,74.392C345.91,56.62,349.311,41.843,339.38,25.625ZZ" style="fill: rgb(47, 46, 65);"/></g></g><g id="shape-e10a1080-3efb-11ed-9e96-d5ea72e0ce91"><g id="fills-e10a1080-3efb-11ed-9e96-d5ea72e0ce91"><path rx="0" ry="0" d="M397,188.043C395.359,178.19,393.666,168.147,389.078,159.271C386.062,153.457,381.275,147.917,374.822,146.767C373.551,146.654,372.302,146.365,371.11,145.909C369.22,145,343.81,130.524,339.772,128.002C336.304,125.838,330.831,121.83,328.071,121.83C325.294,121.769,314.647,124.242,273.09,121C273.09,121,261.674,125.491,252.841,130.937C252.707,130.849,209.709,153.893,208.094,153.833C205.034,153.704,202.191,155.659,200.437,158.121C198.684,160.582,197.861,163.63,197,166.576C206.391,187.45,214.984,208.35,224.377,229.224C224.816,230.01,225.05,230.895,225.056,231.795C224.867,232.73,224.468,233.609,223.887,234.366C219.282,241.75,219.428,251.038,219.931,259.717C220.435,268.396,221.057,277.563,217.171,285.342C216.114,287.478,214.739,289.433,213.734,291.569C211.38,296.406,210.529,311.877,211.904,317.074L384.191,322C380.487,311.837,397,188.043,397,188.043ZZ" style="fill: rgb(51, 161, 253); fill-opacity: 1;"/></g></g><g id="shape-e10b9720-3efb-11ed-9e96-d5ea72e0ce91"><g id="fills-e10b9720-3efb-11ed-9e96-d5ea72e0ce91"><path rx="0" ry="0" d="M184.284,229.53C183.943,231.981,183.909,234.465,184.182,236.925L186.63,271.88C186.859,275.174,187.086,278.461,187.396,281.747C187.984,288.125,188.861,294.452,189.95,300.77C190.001,302.638,191.563,304.112,193.442,304.064C204.216,306.332,215.348,306.241,226.344,305.623C243.124,304.692,286.052,302.93,288.675,299.542C291.298,296.154,289.769,290.674,286.349,287.934C282.93,285.195,226.279,278.516,226.279,278.516C226.833,274.154,228.503,270.046,230.087,265.905C232.932,258.559,235.589,250.972,235.64,243.104C235.691,235.235,232.71,226.962,226.228,222.454C220.896,218.753,214.031,218.067,207.534,218.219C202.806,218.354,194.638,217.228,190.32,219.066C186.903,220.562,184.922,226.203,184.284,229.53ZZ" style="fill: rgb(251, 190, 190);"/></g></g><g id="shape-e10dba00-3efb-11ed-9e96-d5ea72e0ce91"><g id="fills-e10dba00-3efb-11ed-9e96-d5ea72e0ce91"><path rx="0" ry="0" d="M198.707,167.4C197.882,168.264,197.243,169.287,196.828,170.407C189.987,185.836,185.946,202.361,184.895,219.208C184.914,220.03,184.724,220.842,184.345,221.571C183.971,222.056,183.555,222.507,183.101,222.918C182.302,223.866,181.912,225.092,182.017,226.328C182.122,227.563,182.712,228.707,183.66,229.506C183.737,229.571,183.816,229.634,183.897,229.693C185.293,227.064,188.636,226.204,191.607,225.976C205.834,224.849,219.731,231.473,234,230.973C232.993,227.492,231.545,224.146,230.724,220.624C227.093,204.98,236.149,187.948,230.597,172.881C229.488,169.865,227.635,166.901,224.715,165.58C223.506,165.092,222.241,164.757,220.949,164.582C217.344,163.93,210.166,161.144,206.68,162.262C205.393,162.677,204.886,163.888,203.819,164.619C202.199,165.655,200.05,166.036,198.707,167.4ZZ" style="fill: rgb(51, 161, 253); fill-opacity: 1;"/></g></g><g id="shape-e10f40a0-3efb-11ed-9e96-d5ea72e0ce91"><g id="fills-e10f40a0-3efb-11ed-9e96-d5ea72e0ce91"><path rx="0" ry="0" d="M397.68,219.069C393.362,217.226,385.194,218.355,380.466,218.22C373.969,218.067,367.104,218.755,361.772,222.464C355.29,226.983,352.308,235.275,352.36,243.162C352.411,251.049,355.068,258.653,357.913,266.016C359.497,270.167,361.167,274.284,361.721,278.656C361.721,278.656,305.07,285.351,301.651,288.097C298.231,290.843,296.703,296.335,299.325,299.731C301.948,303.127,383.784,306.537,394.558,304.264C396.437,304.312,397.999,302.834,398.05,300.962C399.139,294.629,400.016,288.288,400.604,281.895C400.914,278.601,401.141,275.307,401.37,272.005L403.818,236.969C404.091,234.503,404.057,232.014,403.716,229.557C403.078,226.222,401.097,220.568,397.68,219.069ZZ" style="fill: rgb(251, 190, 190);"/></g></g><g id="shape-e1113c70-3efb-11ed-9e96-d5ea72e0ce91"><g id="fills-e1113c70-3efb-11ed-9e96-d5ea72e0ce91"><path rx="0" ry="0" d="M383.761,164.657C382.674,163.915,382.157,162.687,380.845,162.265C377.292,161.131,369.976,163.958,366.302,164.62C364.985,164.797,363.695,165.137,362.463,165.632C359.487,166.972,357.599,169.979,356.468,173.038C350.809,188.324,360.04,205.603,356.339,221.473C355.502,225.047,354.026,228.441,353,231.973C367.544,232.48,381.708,225.76,396.208,226.903C399.237,227.135,402.644,228.007,404.067,230.675C404.149,230.614,404.23,230.551,404.308,230.485C405.274,229.674,405.876,228.514,405.983,227.26C406.09,226.007,405.692,224.762,404.878,223.801C404.415,223.384,403.991,222.926,403.61,222.435C403.223,221.695,403.03,220.871,403.049,220.037C401.978,202.946,397.859,186.181,390.886,170.529C390.464,169.392,389.812,168.354,388.972,167.478C387.603,166.094,385.412,165.708,383.761,164.657ZZ" style="fill: rgb(51, 161, 253); fill-opacity: 1;"/></g></g><g id="shape-e111ffc0-3efb-11ed-9e96-d5ea72e0ce91"><g id="fills-e111ffc0-3efb-11ed-9e96-d5ea72e0ce91"><ellipse rx="12.999999999999886" ry="13.000000000000114" cx="281.9999999999998" cy="294.0000000000001" transform="matrix(1,0,0,1,-0.000001,0.000001)" style="fill: rgb(251, 190, 190);"/></g></g><g id="shape-e112c310-3efb-11ed-9e96-d5ea72e0ce91"><g id="fills-e112c310-3efb-11ed-9e96-d5ea72e0ce91"><ellipse rx="13" ry="13.000000000000114" cx="309.9999999999999" cy="294.0000000000001" transform="matrix(1,0,0,1,0,0)" style="fill: rgb(251, 190, 190);"/></g></g><g id="shape-e113fb90-3efb-11ed-9e96-d5ea72e0ce91"><g id="fills-e113fb90-3efb-11ed-9e96-d5ea72e0ce91"><path rx="0" ry="0" d="M389.27,322L213.73,322C209.463,321.995,206.005,318.536,206,314.267L206,207.733C206.005,203.464,209.463,200.005,213.73,200L389.27,200C393.537,200.005,396.995,203.464,397,207.733L397,314.267C396.995,318.536,393.537,321.995,389.27,322ZZ" style="fill: rgb(63, 61, 86);"/></g></g><g id="shape-e114bee0-3efb-11ed-9e96-d5ea72e0ce91"><g id="fills-e114bee0-3efb-11ed-9e96-d5ea72e0ce91"><ellipse rx="5.000000000000114" ry="5" cx="301" cy="261" transform="matrix(1,0,0,1,0,0)" style="fill: rgb(255, 255, 255);"/></g></g><g id="shape-e115f760-3efb-11ed-9e96-d5ea72e0ce91"><g id="fills-e115f760-3efb-11ed-9e96-d5ea72e0ce91"><path rx="0" ry="0" d="M588,301L0,301L0,318.851L34.78,318.851L34.78,323L553.234,323L553.234,318.851L588,318.851L588,301ZZ" style="fill: rgb(241, 241, 241);"/></g></g><g id="shape-e11756f0-3efb-11ed-9e96-d5ea72e0ce91"><g id="fills-e11756f0-3efb-11ed-9e96-d5ea72e0ce91"><path rx="0" ry="0" d="M250,83L250,83ZC242.268,83,236,76.374,236,68.2L236,68.2L236,60.8C236,52.626,242.268,46,250,46L250,46L250,83ZZ" style="fill: rgb(51, 161, 253); fill-opacity: 1;"/></g></g><g id="shape-e1184150-3efb-11ed-9e96-d5ea72e0ce91"><g id="fills-e1184150-3efb-11ed-9e96-d5ea72e0ce91"><path rx="0" ry="0" d="M339,46L339,46ZC346.732,46,353,52.626,353,60.8L353,68.2C353,76.374,346.732,83,339,83L339,83L339,46ZZ" style="fill: rgb(51, 161, 253); fill-opacity: 1;"/></g></g><g id="shape-e11952c0-3efb-11ed-9e96-d5ea72e0ce91"><g id="fills-e11952c0-3efb-11ed-9e96-d5ea72e0ce91"><path rx="0" ry="0" d="M346,62L343.792,62C343.792,31.351,321.007,6.417,293,6.417C264.993,6.417,242.208,31.351,242.208,62L240,62C240,30.019,263.776,4,293,4C322.224,4,346,30.019,346,62ZZ" style="fill: rgb(51, 161, 253); fill-opacity: 1;"/></g></g></g></svg>